<?xml version="1.0" encoding="UTF-8"?>
<svg id="Calque_1" data-name="Calque 1" xmlns="http://www.w3.org/2000/svg" viewBox="0 0 358 88">
  <defs>
    <style>
      .cls-1 {
        fill: #f3f3f3;
        stroke-width: 0px;
      }
    </style>
  </defs>
  <path class="cls-1" d="M25.05,65.27c-1.66,0-3.35-.36-5.06-1.08-1.71-.72-3.22-1.81-4.52-3.28-1.3-1.46-2.23-3.33-2.78-5.6L4.89,22.48h13.93l6.8,30.11c-.06-.33-.17-.58-.33-.75s-.3-.25-.41-.25-.25.08-.41.25-.31.41-.41.75l5.56-21.48c.88-3.32,2.29-5.8,4.23-7.46,1.93-1.66,4.34-2.49,7.22-2.49s5.33.82,7.22,2.45c1.88,1.63,3.23,4.08,4.06,7.34l5.56,21.65c-.06-.28-.18-.5-.37-.66-.19-.17-.35-.25-.46-.25-.06,0-.17.08-.33.25-.17.17-.31.39-.42.66l6.47-30.11h13.77l-7.3,32.84c-.5,2.27-1.41,4.13-2.74,5.6-1.33,1.47-2.85,2.56-4.56,3.28-1.71.72-3.4,1.08-5.06,1.08-2.6,0-4.91-.83-6.93-2.49-2.02-1.66-3.44-4.15-4.27-7.46l-5.72-22.39c.11.39.28.66.5.83.22.17.39.25.5.25s.29-.08.54-.25.4-.41.46-.75l-5.64,22.31c-.83,3.32-2.27,5.81-4.31,7.46-2.05,1.66-4.37,2.49-6.97,2.49Z"/>
  <path class="cls-1" d="M99.36,65.19c-4.04,0-7.58-1-10.62-2.99-3.04-1.99-5.42-4.66-7.13-8-1.71-3.34-2.57-7.04-2.57-11.07s1.01-7.71,3.03-11.03,4.74-5.97,8.17-7.96c3.43-1.99,7.3-2.99,11.61-2.99s8.35.95,11.78,2.86c3.43,1.91,6.12,4.51,8.09,7.8,1.96,3.29,2.94,7.06,2.94,11.32v20.82h-14.1v-14.51h4.15c0,3.04-.61,5.75-1.82,8.13-1.22,2.38-2.96,4.24-5.23,5.6-2.27,1.35-5.03,2.03-8.29,2.03ZM101.85,51.17c1.6,0,2.99-.36,4.15-1.08,1.16-.72,2.07-1.69,2.74-2.9.66-1.21,1-2.54,1-3.98s-.33-2.85-1-4.06c-.66-1.22-1.58-2.18-2.74-2.9-1.16-.72-2.54-1.08-4.15-1.08s-2.92.36-4.11,1.08c-1.19.72-2.12,1.69-2.78,2.9-.66,1.22-1,2.57-1,4.06s.33,2.77,1,3.98c.66,1.22,1.59,2.18,2.78,2.9,1.19.72,2.56,1.08,4.11,1.08Z"/>
  <path class="cls-1" d="M147.88,83.02h-14.93v-39.89c0-4.26.98-8.03,2.94-11.32,1.96-3.29,4.66-5.87,8.09-7.75,3.43-1.88,7.35-2.82,11.78-2.82s8.2,1,11.65,2.99,6.18,4.63,8.17,7.92c1.99,3.29,2.99,6.95,2.99,10.99,0,4.42-.91,8.29-2.74,11.61-1.82,3.32-4.38,5.89-7.67,7.71-3.29,1.82-7.15,2.74-11.57,2.74-2.65,0-5.18-.6-7.59-1.78-2.4-1.19-4.35-2.72-5.85-4.6-1.49-1.88-2.24-3.9-2.24-6.06h6.97v30.27ZM155.76,51.17c1.6,0,2.99-.36,4.15-1.08,1.16-.72,2.07-1.69,2.74-2.9.66-1.21,1-2.54,1-3.98s-.33-2.83-1-4.02c-.66-1.19-1.58-2.14-2.74-2.86-1.16-.72-2.54-1.08-4.15-1.08s-2.92.36-4.11,1.08c-1.19.72-2.12,1.67-2.78,2.86-.66,1.19-1,2.53-1,4.02s.33,2.77,1,3.98c.66,1.22,1.59,2.18,2.78,2.9,1.19.72,2.56,1.08,4.11,1.08Z"/>
  <path class="cls-1" d="M200.13,83.02h-14.93v-39.89c0-4.26.98-8.03,2.94-11.32,1.96-3.29,4.66-5.87,8.09-7.75,3.43-1.88,7.35-2.82,11.78-2.82s8.2,1,11.65,2.99,6.18,4.63,8.17,7.92c1.99,3.29,2.99,6.95,2.99,10.99,0,4.42-.91,8.29-2.74,11.61-1.82,3.32-4.38,5.89-7.67,7.71-3.29,1.82-7.15,2.74-11.57,2.74-2.65,0-5.18-.6-7.59-1.78-2.4-1.19-4.35-2.72-5.85-4.6-1.49-1.88-2.24-3.9-2.24-6.06h6.97v30.27ZM208.01,51.17c1.6,0,2.99-.36,4.15-1.08,1.16-.72,2.07-1.69,2.74-2.9.66-1.21,1-2.54,1-3.98s-.33-2.83-1-4.02c-.66-1.19-1.58-2.14-2.74-2.86-1.16-.72-2.54-1.08-4.15-1.08s-2.92.36-4.11,1.08c-1.19.72-2.12,1.67-2.78,2.86-.66,1.19-1,2.53-1,4.02s.33,2.77,1,3.98c.66,1.22,1.59,2.18,2.78,2.9,1.19.72,2.56,1.08,4.11,1.08Z"/>
  <path class="cls-1" d="M246.57,18.08c-1.6,0-3.1-.4-4.48-1.2-1.38-.8-2.48-1.89-3.28-3.28-.8-1.38-1.2-2.87-1.2-4.48s.4-3.17,1.2-4.52c.8-1.35,1.89-2.43,3.28-3.23,1.38-.8,2.87-1.2,4.48-1.2s3.16.4,4.52,1.2c1.35.8,2.43,1.88,3.23,3.23.8,1.36,1.2,2.86,1.2,4.52s-.4,3.1-1.2,4.48c-.8,1.38-1.88,2.47-3.23,3.28-1.36.8-2.86,1.2-4.52,1.2ZM239.11,22.48h14.93v41.47h-14.93V22.48Z"/>
  <path class="cls-1" d="M301.48,63.95h-26.37c-3.98,0-6.95-.93-8.92-2.78-1.96-1.85-2.97-4.02-3.03-6.51-.06-2.16.37-4.08,1.29-5.76.91-1.69,2.42-3.14,4.52-4.35l17.58-10.45c-.17.17-.25.3-.25.42,0,.05.04.14.12.25.08.11.21.17.37.17h-21.98v-12.44h25.3c3.98,0,6.95.93,8.92,2.78,1.96,1.85,2.97,4.02,3.03,6.51.05,2.16-.37,4.06-1.29,5.72s-2.42,3.13-4.52,4.4l-17.58,10.45c.11-.11.17-.19.17-.25,0-.11-.06-.23-.17-.37-.11-.14-.25-.21-.41-.21h23.22v12.44Z"/>
  <path class="cls-1" d="M330.51,84.35c-5.36,0-9.86-1.11-13.48-3.32-3.62-2.21-6.4-5.34-8.34-9.37l12.36-6.63c.66,1.38,1.73,2.68,3.19,3.9,1.46,1.22,3.47,1.83,6.01,1.83,1.94,0,3.59-.43,4.98-1.29,1.38-.86,2.46-2.07,3.23-3.65.77-1.58,1.16-3.47,1.16-5.68v-4.06h2.65c-.55,1.99-1.36,3.59-2.41,4.81-1.05,1.22-2.36,2.1-3.94,2.65-1.58.55-3.44.83-5.6.83-4.64,0-8.42-.91-11.32-2.74-2.9-1.82-5.03-4.34-6.39-7.55-1.36-3.21-2.03-6.89-2.03-11.03v-20.57h14.68v20.24c0,2.27.62,4.11,1.87,5.52,1.24,1.41,2.97,2.12,5.18,2.12,1.22,0,2.36-.32,3.44-.95,1.08-.63,1.95-1.53,2.61-2.7.66-1.16,1-2.49,1-3.98v-20.24h15.18v37.49c0,4.98-1.05,9.29-3.15,12.94-2.1,3.65-4.96,6.47-8.58,8.46-3.62,1.99-7.73,2.99-12.32,2.99Z"/>
</svg>