<svg xmlns="http://www.w3.org/2000/svg" id="Calque_1" data-name="Calque 1" viewBox="0 0 939.9 278.8"><defs><style>.cls-1{fill:#fcfcfc;}.cls-2{fill:#fefefe;}.cls-3{fill:#3469a0;}.cls-4{fill:#799cc0;}.cls-5{fill:#769abf;}.cls-6{fill:#7a9dc1;}.cls-19,.cls-7{fill:#3468a0;}.cls-8{fill:#6d93bb;}.cls-9{fill:#7c9ec2;}.cls-10{fill:#7d9fc2;}.cls-11{fill:#9bb4cf;}.cls-12{fill:#7699bf;}.cls-13{fill:#7d9ec2;}.cls-14{fill:#82a2c4;}.cls-15{fill:#7599be;}.cls-16{fill:#789bc0;}.cls-17{fill:#779abf;}.cls-18{fill:#7a9cc0;}.cls-19{stroke:#3468a0;stroke-miterlimit:10;stroke-width:2px;}</style></defs><path class="cls-1" d="M120.2,22.4c-.2-.7.2-1.1.7-1.5h113c.8,1.3,0,2.6-.4,3.6-.7,2.1-1.1,4.2-1.7,6.3-.7,2.4-1.2,4.9-2,7.2s-1.2,5-1.9,7.4c-.8,2.7-1.7,5.4-2.3,8.1-.5,2.4-1.4,4.7-1.9,7-.4,2.1-1.4,4.1-1.6,6.3-.3.3-.3.6-.5,1a4.89,4.89,0,0,1-2.9,2.9c-.3.2-.7.2-1,.5-16,1.1-32,.2-48,.5-.3.5-1,.6-1.4,1a4.66,4.66,0,0,0-1.4,1.4c-.6.7-.7,1.8-1.4,2.4v1.2c0,.5,0,.9-.5,1.2v1.4a1.11,1.11,0,0,1-.5,1V82c0,.5,0,.9-.5,1.2v1.2c0,.5,0,.9-.5,1.2v.7c0,.5,0,.9-.5,1.2v1.2c0,.5,0,.9-.5,1.2v.7c0,.5,0,.9-.5,1.2v1.4a1.11,1.11,0,0,1-.5,1v1a1.11,1.11,0,0,1-.5,1c.2.8.8.5,1.3.5H209c2,0,2.6.7,1.9,2.6-.6,1.6-.7,3.4-1.3,5-.9,2.5-1.6,5.2-2.3,7.8-.8,3.3-1.9,6.5-2.6,9.8-.5,2.3-1.4,4.6-2.1,6.9-.6,1.9-.9,4-1.6,5.9a4.94,4.94,0,0,0-.5,2.4c-.3.3-.3.6-.5,1a6.29,6.29,0,0,1-3.4,3.4c-14.8,1.1-29.5.2-44.3.5-.9,0-1.5.2-1.3,1.2,0,.5,0,.9-.5,1.2v.7c0,.5,0,.9-.5,1.2v.7c0,.5,0,.9-.5,1.2v.7c0,.5,0,.9-.5,1.2v1.2a9.51,9.51,0,0,1-.7,2.4c-.3.2-.2.5-.2.7-.2.1-.3,0-.4-.1a2.25,2.25,0,0,1-.1-1.4c.9-3.2,1.6-6.4,2.4-9.6.5-2,.7-2.2,2.8-2.2,13.1,0,26.3-.1,39.4.1a7.46,7.46,0,0,0,7.6-5.9c1.4-5.2,3-10.3,4.4-15.5,1.9-6.8,4-13.5,5.7-20.3.3-1.3.1-1.6-1.2-1.7H163.2c-2.8,0-3-.3-2.4-3.1,1.3-6.1,2.8-12.2,4-18.4a3.7,3.7,0,0,1,.8-1.8,8.78,8.78,0,0,0,1.2-1.5l1.5-1.2a12.43,12.43,0,0,1,4.7-.6h39.2c1.1,0,2.2-.1,3.2-.2a6.71,6.71,0,0,0,5.6-4.5c.8-2.3,1.4-4.7,2.1-7.1,1.5-5.8,3.1-11.6,4.7-17.3,1.6-6.1,3.2-12.2,4.9-18.3.4-1.6.4-1.7-1.3-1.7H122.8a3.05,3.05,0,0,0-2.6.3Z"/><path class="cls-2" d="M645.4,264.9v.7H614.2v-.7a12.29,12.29,0,0,1,2.7.2h25.8A12.29,12.29,0,0,1,645.4,264.9Z"/><path class="cls-2" d="M515.8,264.9c-.2.2-.3.5-.5.7h-1v-.2C514.8,264.9,515.2,264.5,515.8,264.9Z"/><path class="cls-3" d="M708.5,148.4h-.2c-1.1-.3-2.3.1-3.4-.2H704c-2.2-.1-4.5-.4-6.7-.4a2.88,2.88,0,0,1-1.3-.1h-1.1c-.1,0-.2-.1-.3-.1-5.9,0-11.8-.5-17.7-.2-2,.1-4.1,0-6.1.3h-.9c-1.5.3-3.1-.1-4.6.5h-.6c-2.1.3-4.2.5-6.3,1-.6.3-1.3.2-1.9.5-.4.4-1,.2-1.5.5-1.1.6-2.3,1.1-3.4,1.7a10.1,10.1,0,0,0-4.6,5.4,7.23,7.23,0,0,0-.2,4.6c.3,1.1,1.4,1.6,2.4,2,.2.1.6,0,.8.3.5.3,1.2.2,1.7.5s1.2.1,1.7.5c3,.6,5.9,1.4,8.9,2.1.3.1.6.1.8.2,0,.1.1.1.2,0,.6.3,1.4.2,2,.5,0,.1.1.1.1,0a6.53,6.53,0,0,1,2,.5c0,.1.1.1.1,0,.7.2,1.4,0,2,.5.6.3,1.3.2,1.9.5.1.1.1.1.2,0,.6.2,1.2.1,1.7.5.1.1.1.1.2,0,.6.2,1.2.1,1.7.5.1.1.1.1.2,0,.6.2,1.2.1,1.7.5s1.2.2,1.7.5c0,.1.1.1.2,0,.5.2,1.1.1,1.5.5h.2a9.83,9.83,0,0,1,1.6.5c0,.1.1.1.2,0,.5.2,1.1.1,1.5.5s1.2.1,1.7.5,1,.2,1.5.5c0,.1.1.1.2,0,.5.2,1.1.1,1.5.5s1,.1,1.5.5,1,.1,1.5.5l.1.1h.1a6.61,6.61,0,0,1,1.5.5c.5.3,1.2,0,1.7.5.4.2.9.1,1.2.5.4.2.9.2,1.2.5h.2a6.94,6.94,0,0,1,1.3.5c.4.3,1,.1,1.4.5a8.8,8.8,0,0,0,1.5.5,6.12,6.12,0,0,1,1.2.5c.4.3.8.2,1.2.5a6.12,6.12,0,0,1,1.2.5c.3.2.7.1,1,.5a6.92,6.92,0,0,1,1.9,1c.3.2.7.2,1,.5a7,7,0,0,1,1.9,1.5l.2.2a7,7,0,0,1,2.7,2.7,7.84,7.84,0,0,1,1,1.5,26.39,26.39,0,0,1,1.5,2.9,1.74,1.74,0,0,0,.5,1.4,3.71,3.71,0,0,1,.4,1.5,8,8,0,0,0,.5,2.6c.3.5,0,1,.2,1.5v.2a39.32,39.32,0,0,1-.1,8.4,9.74,9.74,0,0,1-.2,2.4c0,.1-.1.1,0,.2-.2,1,0,2-.5,2.9,0,.1-.1.1,0,.2a8.73,8.73,0,0,1-.5,2.2c-.1.1-.1.1,0,.2a12.09,12.09,0,0,1-.5,1.8c0,.1-.1.1,0,.2-.3.6-.2,1.2-.5,1.7s0,1.1-.5,1.4c-.3.4-.1,1-.5,1.5-.2.4-.2.9-.5,1.2a12.23,12.23,0,0,1-1,2.4c-.2.4-.1.9-.5,1.2-.2.3-.1.8-.5,1-.2.3-.3.7-.5,1s-.1.8-.5,1c-.2.3-.1.8-.5,1,0,.1-.1.2-.2.3-.3.4-.8.7-.9,1.3-.1.3,0,.7-.4.9a4.92,4.92,0,0,1-1,1.5c-.3.8-1,1.3-1.4,2a13.93,13.93,0,0,1-1.5,1.9c-.4,1-1.4,1.5-2,2.4a2.73,2.73,0,0,1-1.3,1.5,35.69,35.69,0,0,0-2.8,2.7c-.1.1-.2.1-.3.2a7.83,7.83,0,0,0-2,1.6,58.53,58.53,0,0,1-7,5.3c-.5.4-1.1.7-1.6,1.1a8,8,0,0,0-2.1,1.5c-2.3,1.1-4.5,2.4-6.9,3.4-.3.4-.8.3-1.2.5a47.8,47.8,0,0,1-4.8,1.9c-.4.4-1,.2-1.5.5s-1,.2-1.5.5-1,.2-1.5.5c-1.8.8-3.8,1-5.7,1.6a85.72,85.72,0,0,1-8.8,1.8c-3,.5-6.1.8-9.1,1.1-7.8.8-15.6.3-23.5.4-2.1,0-4.3.1-6.3-.1-3.3-.4-6.6-.2-9.9-.5-5-.4-10-.6-15-1a56.5,56.5,0,0,1-5.8-.4c-2.3-.3-3-1.2-3.1-3.4,0-2.8.9-5.4,1.6-8,.5-1.9.9-3.8,1.3-5.7,1-4.3,2-8.7,3.2-13,.3-1.2.5-2.3.9-3.5a2.73,2.73,0,0,1,2.9-2,52.53,52.53,0,0,1,8.8.9,61.84,61.84,0,0,0,6.2.7,49.05,49.05,0,0,1,6.7.8c1.1.2,2.2,0,3.3.1a66.35,66.35,0,0,0,7.7.5c2.8-.1,5.5.2,8.3.1a69.47,69.47,0,0,0,7.9-.2c3.4-.4,6.7-.3,10.1-.8,2.9-.4,5.7-.8,8.6-1.1a20.09,20.09,0,0,0,5.5-1.3,18.78,18.78,0,0,0,9.8-6.3,8.91,8.91,0,0,0,1.7-7.7,7.42,7.42,0,0,0-4.1-5.2,6.89,6.89,0,0,0-1.5-.7.37.37,0,0,1-.3-.1,6.61,6.61,0,0,0-1.5-.5c-.5-.3-1.1-.4-1.6-.7a5.84,5.84,0,0,0-1.8-.4c-2.6-.8-5.2-1.3-7.8-1.9-3.1-.8-6.3-1.5-9.5-2.2-2.5-.6-5-1.1-7.5-1.7-1.7-.4-3.5-.8-5.2-1.3-1.1-.4-2.3-.5-3.4-1a8.8,8.8,0,0,1-1.5-.5,7.84,7.84,0,0,1-1.4-.5c-.5-.1-.9-.3-1.4-.4-.1,0-.2-.1-.3-.1a5.27,5.27,0,0,0-1.2-.3c-.1,0-.2-.1-.3-.1a17.6,17.6,0,0,0-2-.9c-.1,0-.2-.1-.3-.1a20.94,20.94,0,0,0-2.3-.8c-.1,0-.2-.1-.3-.1a44.7,44.7,0,0,1-8.6-4.7,24.52,24.52,0,0,1-5.7-6.3c-3-5-3.5-10.3-2.9-15.9a25.58,25.58,0,0,1,.5-2.7c.6-1,.5-2.1.8-3.2a48.14,48.14,0,0,1,5.9-14.5,51.28,51.28,0,0,1,8.4-10.2,76.4,76.4,0,0,1,7.7-6.1c.1-.1.2-.1.2-.2a3.81,3.81,0,0,0,1.3-.9c.1-.1.2-.1.3-.2a5.41,5.41,0,0,0,2.2-1.5c3-1.5,5.9-3.1,8.9-4.5,1.3-.2,2.2-1.1,3.4-1.4,1.4-.1,2.6-.9,3.9-1.4a38.53,38.53,0,0,0,5.7-2c.6,0,1.2-.4,1.8-.4,1.2,0,2.3-.9,3.5-1a7.11,7.11,0,0,0,2-.4c.6-.3,1.4-.2,2-.5h.1a8.73,8.73,0,0,1,2.2-.5h.2a8.73,8.73,0,0,1,2.2-.5h.4c.8-.5,1.7-.2,2.5-.5h.4c1-.2,2-.3,3-.5h.4c1.3-.2,2.6-.3,3.9-.5h.6c1.7-.2,3.4-.1,5-.4.3-.1.7.1,1-.1h1.1a5.45,5.45,0,0,1,2.2-.1h8.4a2.46,2.46,0,0,1,1.2.1h1.4c1.2.3,2.4-.1,3.7.2.1.1.1.1.2,0,.9.3,1.8-.1,2.7.2h.4c1,.3,2-.1,2.9.2.5.3,1.2-.1,1.7.2h.7c1.5.2,3.1.3,4.6.5h.6c1.5.3,3.1.3,4.6.5h.4c.9.3,1.8-.2,2.7.3.2.3.6.2.9.2.3.2.7.3,1,.5a2.54,2.54,0,0,1,1.2,1.3c0,.2,0,.3.2.4a7.36,7.36,0,0,1,.1,3.3c-.4.6-.1,1.3-.6,1.9a4.06,4.06,0,0,0-.4,1.9,10.93,10.93,0,0,0-.5,1.7c-.3.5-.2,1.2-.5,1.7a3.2,3.2,0,0,0-.5,1.9,10.93,10.93,0,0,0-.5,1.7c-.1,0-.1.1,0,.2-.2.5-.3,1-.5,1.5v.2c-.2.5-.3,1-.5,1.5-.1.1-.1.1,0,.2a15.43,15.43,0,0,0-.5,1.7c-.1,0-.1.1,0,.1-.2.5-.3,1-.5,1.5a3.2,3.2,0,0,0-.5,1.9c-.2.5-.3,1-.5,1.5v.2a12.09,12.09,0,0,0-.5,1.8c-.3.5-.2,1.2-.5,1.7-.1,0-.1.1,0,.2-.2.5-.3,1-.5,1.5v.2a1.65,1.65,0,0,1-1.8,1.2,43.41,43.41,0,0,1-5.1-.1h-.9c-.9-1.8-2.3-1.4-3.7-1.7Z"/><path class="cls-3" d="M728.2,231.7v-.6a7,7,0,0,1-.1-2.5v-8.1a2.46,2.46,0,0,1,.1-1.2v-.4c.3-.6-.1-1.3.2-2s-.1-1.3.2-1.9c0-.1.1-.1,0-.2a25.58,25.58,0,0,1,.5-2.7c0-.1.1-.1,0-.2.2-.7.3-1.5.5-2.2v-.4c.2-.7.3-1.4.5-2,.1-.3-.1-.7.2-1s-.1-.8.3-1.1c.2-.6.3-1.3.5-1.9a5.37,5.37,0,0,1,.5-2.1,15.43,15.43,0,0,0,.5-1.7,5.45,5.45,0,0,1,.5-2.2c.4-.6.3-1.3.5-1.9s.3-1.4.5-2.1a8.45,8.45,0,0,1,.5-1.7c.1-.1.1-.1,0-.2.2-.6.3-1.3.5-2,.1,0,.1-.1,0-.2.2-.6.3-1.2.5-1.8,0-.1.1-.1,0-.2a15.43,15.43,0,0,0,.5-1.7c.3-2.1.9-4.1,1.4-6.2.2-.6.3-1.3.5-2a5.37,5.37,0,0,1,.5-2.1,15.43,15.43,0,0,0,.5-1.7c0-.1.1-.1,0-.2.3-.6.2-1.3.5-2a13.32,13.32,0,0,0,.5-1.9c.2-.7.3-1.4.5-2.1a8.45,8.45,0,0,1,.5-1.7c.1-.1.1-.1,0-.2.2-.6.3-1.3.5-2,.1,0,.1-.1,0-.2.2-.6.3-1.2.5-1.8,0-.1.1-.1,0-.2a15.43,15.43,0,0,0,.5-1.7c.3-2.1.9-4.1,1.4-6.2.2-.6.3-1.3.5-2a5.37,5.37,0,0,1,.5-2.1,15.43,15.43,0,0,0,.5-1.7c0-.1.1-.1,0-.2.3-.6.2-1.3.5-2a13.32,13.32,0,0,0,.5-1.9c.2-.7.3-1.4.5-2.1a8.45,8.45,0,0,1,.5-1.7c.1-.1.1-.1,0-.2.2-.6.3-1.3.5-2,.1,0,.1-.1,0-.2.2-.6.3-1.2.5-1.8,0-.1.1-.1,0-.2a15.43,15.43,0,0,0,.5-1.7c.3-2.1.9-4.1,1.4-6.2.2-.6.3-1.3.5-2a5.37,5.37,0,0,1,.5-2.1,15.43,15.43,0,0,0,.5-1.7c0-.1.1-.1,0-.2.3-.6.2-1.3.5-2s.2-1.3.5-1.9a13.32,13.32,0,0,0,.5-1.9c.1-.1.1-.1,0-.2a8.45,8.45,0,0,1,.5-1.7c.1-.1.1-.1,0-.2.2-.6.3-1.3.5-2,.1,0,.1-.1,0-.2.2-.6.3-1.2.5-1.8,0-.1.1-.1,0-.2a15.43,15.43,0,0,0,.5-1.7c.1-.1.1-.1,0-.2.3-.6.2-1.3.5-2,.3-1.3.6-2.7,1-4,.2-.6.3-1.3.5-2a5.37,5.37,0,0,1,.5-2.1,15.43,15.43,0,0,0,.5-1.7c0-.1.1-.1,0-.2.2-.6.3-1.2.5-1.7.1-.1.1-.1,0-.2.3-.6.2-1.3.5-2a13.32,13.32,0,0,0,.5-1.9c.1-.1.1-.1,0-.2a8.45,8.45,0,0,1,.5-1.7c.1-.1.1-.1,0-.2.2-.6.3-1.3.5-2,.1,0,.1-.1,0-.2.2-.6.3-1.2.5-1.8,0-.1.1-.1,0-.2a15.43,15.43,0,0,0,.5-1.7c.1-.1.1-.1,0-.2a6.94,6.94,0,0,1,.5-1.3c.2-.3.2-.7.5-1a3.45,3.45,0,0,1,1.2-1.2,10.88,10.88,0,0,1,2.4-.7,2.46,2.46,0,0,1,1.2-.1h34.1c1.7,0,1.8.1,1.5,1.8-.1.1-.1.1,0,.2-.2.6-.1,1.4-.5,2-.1.1-.1.1,0,.2a6.53,6.53,0,0,1-.5,2c-.1.1-.1.1,0,.2-.2.6-.1,1.4-.5,2-.1.1-.1.1,0,.2a6.53,6.53,0,0,1-.5,2c-.1.1-.1.1,0,.2-.2.6-.3,1.3-.5,2-.1.1-.1.1,0,.2a6.53,6.53,0,0,1-.5,2c-.1.1-.1.1,0,.2-.2.6-.3,1.3-.5,2,0,.1-.1.1,0,.2a11.7,11.7,0,0,0-.5,2c-.1.1-.1.1,0,.2-.2.6-.3,1.3-.5,2,0,.1-.1.1,0,.2a11.7,11.7,0,0,0-.5,2c-.1.1-.1.1,0,.2-.2.6-.3,1.3-.5,2,0,.1-.1.1,0,.2a11.7,11.7,0,0,0-.5,2c-.1.1-.1.1,0,.2-.2.6-.3,1.3-.5,2a4.79,4.79,0,0,0-.5,2.3c-.2.6-.3,1.3-.5,2a4.79,4.79,0,0,0-.5,2.3c-.2.6-.3,1.3-.5,2,0,.1-.1.1,0,.2a11.7,11.7,0,0,0-.5,2c0,.1-.1.1,0,.2-.2.6-.3,1.3-.5,2v.2a2.88,2.88,0,0,0,1.3.1h29.6c.7,0,1.6-.2,1.2,1.1a51.71,51.71,0,0,0-1.9,6.4c-1.6,5.5-3.1,10.9-4.7,16.4-.6,2.1-1.1,4.1-1.6,6.2a1.81,1.81,0,0,1-2,1.6H789.8c-2.3,0-3.7.9-4.4,3.1-1,3.1-1.5,6.3-2.2,9.4-1.2,4.7-2.2,9.5-3.3,14.3-1,4.5-2,9.1-3,13.6s-2.1,9.1-3.2,13.7c-.8,3.4-1.6,6.9-1.1,10.4,1.1,7.4,5.6,12.5,13.9,12.5a64.76,64.76,0,0,0,9.8-.8,36.68,36.68,0,0,0,6.4-1.4c1.1-.4,1.3-.1,1,1s-.7,2.3-1,3.4c-1.2,4.7-2.5,9.3-3.7,14-1.1,4.2-2.2,8.3-3.3,12.4a8.36,8.36,0,0,1-6.4,5.5,116.72,116.72,0,0,1-22.1,1.4c-1.5-.2-2.9-.3-4.4-.5h-.4c-.9-.2-1.8-.3-2.7-.5-.4-.1-.9.2-1.2-.2s-.8.1-1.2-.2h-.2c-.6-.3-1.4-.2-2-.5a24.44,24.44,0,0,1-4.6-1.4c-.3-.3-.8-.3-1.2-.5s-.8-.3-1.2-.5-.7-.3-.9-.5-.8-.1-1-.5c-.9-.3-1.6-1.1-2.4-1.4a24.26,24.26,0,0,0-2-1.4c-1.8-1.5-3.4-3.3-5.1-4.9a4.7,4.7,0,0,1-.6-.9c-.4-.6-1.1-1.1-1.3-1.8a8.58,8.58,0,0,0-1.3-2.3.35.35,0,0,1-.2-.1c-.3-.3-.3-.7-.5-1.1,0-.1,0-.1-.1-.1a3,3,0,0,1-.4-1c-.3-.3-.2-.9-.5-1.2s-.3-.8-.5-1.2a5.78,5.78,0,0,0-.5-1.4c-.4-.4-.2-1-.5-1.5s-.3-1.3-.5-1.9c-.5-.8-.3-1.6-.5-2.4v-.2c-1.1-.9-.9-2-1.1-3.1Z"/><path class="cls-1" d="M468.8,226.1c-1,1.8-1.9,3.7-2.9,5.5-.8,1.4-1.6,2.7-2.4,4.1a4.74,4.74,0,0,1-1,1c-.5.8-1,1.6-1.4,2.4a4.66,4.66,0,0,1-1.4,1.4c-.1.3-.5.5-.5,1a51.86,51.86,0,0,1-6.2,6.2c-.4,0-.6.3-1,.5a6.2,6.2,0,0,1-1.4,1.4c-.4,0-.6.3-1,.5a3.18,3.18,0,0,1-1,1c-1.7.7-3,1.9-4.6,2.8a63.35,63.35,0,0,1-8.2,4.2c-2.9,1.3-6,2.1-8.9,3.1-2.7.9-5.4,1.5-8.1,2.2-1.1.3-2.4.4-3.5.7-1.3.4-2.8,0-4,.8-.1.1-.4.1-.6.1-5.8.6-11.6.4-17.4.5-2.4,0-4.8-.4-7.2-.6a65.7,65.7,0,0,1-7.7-1.6c-2.8-.7-5.6-1.6-8.4-2.6a55.36,55.36,0,0,1-10.1-4.9c-.6-.4-1.2-1.1-2-1.2a4.74,4.74,0,0,1-1-1c-.3-.1-.5-.5-1-.5a54.36,54.36,0,0,1-4.8-4.8c-.9-1.8-2.3-3.2-3-5.1a58,58,0,0,1-1.9-5.9,31,31,0,0,1-.8-10.9c.3-2.2,0-4.5.8-6.6.3-1,.2-2.2.5-3.2a37.72,37.72,0,0,0,1.4-5.8c.3-1.6.7-3.2,1.1-4.8a28.09,28.09,0,0,1,1.2-4.8,21.1,21.1,0,0,0,.6-2.9l1.8-7.2a28.17,28.17,0,0,0,.7-3.1c.2-1.6.8-3.2,1.1-4.8.2-1.1.8-2.1.7-3.2a11,11,0,0,1,.6-2.6c.6-1.8.8-3.7,1.3-5.6.8-2.8,1.3-5.6,2-8.4.5-2,1.1-4,1.5-6,.3-1.6.8-3.2,1.2-4.7a15.54,15.54,0,0,0,.7-3.1,39.92,39.92,0,0,1,1.1-4.7c.4-1.7.8-3.3,1.3-5s.7-3.7,1.3-5.4c.5-1.5.6-3.2,1.1-4.8.6-1.8.8-3.6,1.2-5.3s1.2-3.3,1.1-5.1a3,3,0,0,1,.5-1.3c.7-1.1.3-2.3.7-3.4a1.43,1.43,0,0,1,1.6-1h38.9c1.6,0,1.7.4,1.2,1.9s-.8,3-1.2,4.5c-.4,1.7-.8,3.4-1.3,5-.5,2.2-1.1,4.4-1.6,6.7-.4,1.6-.8,3.1-1.1,4.7-.3,1.8-1,3.4-1.3,5.2a41.15,41.15,0,0,1-1.3,4.7c-.4,1.5-.7,3.1-1.1,4.7s-.8,3.2-1.3,4.9c-.4,1.5-.8,3.1-1.1,4.7s-.9,3.3-1.3,5c-.4,1.5-.7,3-1.1,4.5-.4,1.7-.9,3.4-1.3,5.1s-.7,3.1-1.1,4.7-.8,3.2-1.2,4.9c-.4,1.5-.8,3.1-1.1,4.6-.4,1.7-.9,3.3-1.3,5-.4,1.5-.7,3-1.1,4.5-.4,1.7-.9,3.4-1.3,5.1a31.45,31.45,0,0,1-1.1,4.4,17.75,17.75,0,0,0-.8,4.5c-.3,2.8-.6,5.6.5,8.4a26.52,26.52,0,0,0,2.3,4.8,6.89,6.89,0,0,1,2.4,2.4,25.24,25.24,0,0,0,6.1,2.5c3.9.8,7.8.5,11.6.3a21,21,0,0,0,9-2.8c1.2-.7,2.3-1.6,3.6-2.3a19.88,19.88,0,0,1,2.9-2.9c1.2-2,2.7-3.8,3.5-6a34.65,34.65,0,0,0,1.9-5.7,27.49,27.49,0,0,1,1.6-6.1,26.53,26.53,0,0,0,.6-3,45.56,45.56,0,0,0,1.3-5.3c.3-1.6.9-3.1,1.1-4.7s.8-3.2,1.2-4.8.7-3.1,1.1-4.7l1.2-4.5a26.81,26.81,0,0,0,.7-2.7,43.91,43.91,0,0,1,1.3-5.2c.4-1.5.8-3.1,1.1-4.7a19.48,19.48,0,0,1,.6-2.3c.7-3.1,1.4-6.2,2.2-9.2.8-2.8,1.3-5.7,2-8.6s1.5-5.7,2.3-8.6,1.3-5.7,2-8.5c.4-1.6.9-3.1,1.3-4.7s.7-3.2,1.1-4.8a7,7,0,0,0,.5-2.5c.3-.3.3-.6.5-1a6.87,6.87,0,0,1,1.9-1.9c.3-.2.7-.2,1-.5h37.3c1.7,0,1.7.1,1.2,1.8s-.7,3.2-1.1,4.8-.9,3.1-1.3,4.7-.7,3.1-1.1,4.7-.7,3.1-1.1,4.7c-.6,2.3-1.2,4.7-1.7,7-.4,1.5-.8,3.1-1.2,4.6-.6,2.3-1.1,4.6-1.7,6.9-.4,1.5-.8,3.1-1.1,4.6-.6,2.3-1.2,4.7-1.7,7s-1.1,4.4-1.7,6.6-1.1,4.4-1.6,6.5c-.4,1.6-.8,3.3-1.2,4.9l-1.2,4.8c-.4,1.6-.9,3.1-1.2,4.7-.4,2.4-1.5,4.6-1.8,7a35.37,35.37,0,0,1-1.1,4.4c-.6,2.4-1.4,4.8-1.9,7.3a59.65,59.65,0,0,1-2.5,9.2c-.7,1.8-1.3,3.5-2.1,5.2a2,2,0,0,0-.1.8c-.1-.1-.1.3-.3.6Z"/><path class="cls-1" d="M204,177.2a1.55,1.55,0,0,0,.5-1.4c.3-.3.3-.6.5-1s.3-.6.5-1,.3-.6.5-1,.3-.6.5-1a1.55,1.55,0,0,0,.5-1.4c.4-.8.9-1.6,1.4-2.4.3-.3.3-.6.5-1s.3-.6.5-1c.4-.8.9-1.6,1.4-2.4s.9-1.6,1.4-2.4c.7-1.3,1.6-2.5,2.4-3.8,1.9-2.6,3.9-5.1,5.8-7.7a125.51,125.51,0,0,1,16.3-16.3c.9-.5,1.5-1.4,2.4-1.9.7-.4,1.3-1,1.9-1.4a7.1,7.1,0,0,0,1.4-1,179179108510673.1,179179108510673.1,0,0,0,2.8-2,7.1,7.1,0,0,0,1.4-1c.3-.2.7-.2,1-.5a7.1,7.1,0,0,0,1.4-1c.3-.2.7-.2,1-.5s.7-.2,1-.5.7-.2,1-.5a7.1,7.1,0,0,0,1.4-1,16.57,16.57,0,0,0,4.3-1.9c.3-.2.7-.2,1-.5s.7-.2,1-.5a1.74,1.74,0,0,0,1.4-.5c.3-.2.7-.2,1-.5A17.61,17.61,0,0,0,266,117c2-.6,4-1.2,6.1-1.7,1.6-.4,3.1-.9,4.7-1.3a19.21,19.21,0,0,1,3.2-.5,51.68,51.68,0,0,0,5.5-.7,71.78,71.78,0,0,1,13.9-.3,37.18,37.18,0,0,1,6.6.8,54.15,54.15,0,0,1,5.8,1.2,58.36,58.36,0,0,1,6.6,2.4,54.12,54.12,0,0,1,8.8,5,.75.75,0,0,0,.5.1,60.55,60.55,0,0,1,6.7,6.7c.8,1.9,2.2,3.4,3.1,5.2a50.52,50.52,0,0,1,2.7,7.4,64.69,64.69,0,0,1,1.5,7.4c.5,2.7.2,5.3.4,7.9.1,2.4-.1,4.7.1,7.1a39.35,39.35,0,0,1-.6,6,28.17,28.17,0,0,1-.9,5.7c-.6,1.9-.8,3.9-1.3,5.8-.4,1.7-.9,3.4-1.2,5.1a12.76,12.76,0,0,1-1.6,5,4.6,4.6,0,0,1-4.3,2.1H240.8c-1.6,0-2,.3-2.4,1.9a21.39,21.39,0,0,1-.6,2.7,14.72,14.72,0,0,0-.4,3.6,18.47,18.47,0,0,0,2.6,10.5c.7,1.3,1.4,2.6,2.2,3.8a19.54,19.54,0,0,1,3.8,3.8c.3.1.5.5,1,.5a4.74,4.74,0,0,1,1,1,33.89,33.89,0,0,0,9.5,4.3,54.41,54.41,0,0,0,7,1.5c5.4,1.1,10.9.8,16.4.8s11,.2,16.5-.1a64.94,64.94,0,0,0,7.7-.5c1.4-.2,2.8-.2,4.2-.4,2.4-.5,4.9-.5,7.3-1l5.8-1.2a11,11,0,0,1,4.1-.6c1.2.1,1.6.5,1.7,1.7.1,1.9-.7,3.5-1.1,5.3-.4,1.6-.9,3.2-1.3,4.7l-1.2,4.5-1.2,4.5a23.76,23.76,0,0,1-1.1,3.8c-.6,1.5-.8,3.1-1.3,4.6a27.75,27.75,0,0,1-1.5,4.9,6.2,6.2,0,0,1-1.4,1.4,39.29,39.29,0,0,1-6.8,1.5c-1.7.3-3.5.1-5.2.8a12.94,12.94,0,0,1-3.5.4,42.61,42.61,0,0,1-5,.6,32.64,32.64,0,0,0-6.9.9h-.2c-2.6-.3-5.1.3-7.7.5a167.71,167.71,0,0,1-22.4.3c-2.4-.1-5,.2-7.3-.8a.45.45,0,0,0-.5,0c-1.9.3-3.8-.4-5.6-.6a48.16,48.16,0,0,1-5.2-1.1c-2.1-.5-4.2-1.2-6.3-1.7a22.26,22.26,0,0,1-4.3-1.6,70.89,70.89,0,0,1-6.9-3.2,8.87,8.87,0,0,0-2.5-1.4c-.5-.3-.9-.7-1.4-1a3.18,3.18,0,0,1-1-1c-.3-.1-.5-.5-1-.5a11.55,11.55,0,0,0-1.9-1.4,80,80,0,0,1-7.7-7.7c-.4-.7-1-1.3-1.4-1.9a7.1,7.1,0,0,0-1-1.4,7.1,7.1,0,0,0-1-1.4c-.2-.3-.2-.7-.5-1a7.1,7.1,0,0,0-1-1.4c-.2-.3-.2-.7-.5-1s-.2-.7-.5-1-.2-.7-.5-1-.2-.7-.5-1-.2-.7-.5-1c0-.5,0-1.1-.5-1.4-.2-.3-.2-.7-.5-1,.1-.8-.4-1.5-.6-2.3-.6-2.9-1.6-5.8-1.9-8.8a52.73,52.73,0,0,0-.4-5.7,12.81,12.81,0,0,1-.4-4.3c.5-2.5.2-5,.5-7.5a53.61,53.61,0,0,1,1.5-7.8c.3-1.3.2-2.6.9-3.8.2-.3.2-.6.5-.7.5,1-.3,1.8-.3,2.7-.7,3.6-1.7,7.2-1.9,11a76.39,76.39,0,0,0-.3,9.6,68.46,68.46,0,0,0,1,9.1,48,48,0,0,0,9.5,20.9c5.5,6.9,11.9,12.5,20,16.2a77.11,77.11,0,0,0,13.3,4.5,81,81,0,0,0,9.6,1.8c3,.4,6.1.6,9.2.8a85.26,85.26,0,0,0,11.3.2c4.2-.2,8.5-.3,12.7-.8,2.3-.3,4.5-.3,6.8-.6s4.5-.5,6.8-.8c1.7-.2,3.5-.4,5.2-.7,3.9-.6,7.9-.9,11.8-1.8a5.82,5.82,0,0,0,4.4-4.4c1-3.8,2-7.6,3-11.3,1.1-4,2.2-7.9,3.2-11.9.4-1.6,1-3.2,1.3-4.8.3-1.4-.4-2.2-1.8-2-2.3.3-4.5.9-6.8,1.3-1.8.3-3.5.5-5.3.8-2.2.3-4.4.4-6.5.8-1.9.4-3.9,0-5.9.4a40.28,40.28,0,0,1-4.9.3c-2.9,0-5.8.1-8.6.2-6.1.1-12.2.1-18.2-.3a45.6,45.6,0,0,1-18.4-4.4c-7.2-3.7-12-9.3-13.7-17.3a17.45,17.45,0,0,1-.3-5.6,41,41,0,0,1,.6-4.9c.2-.7.3-1.3.5-2a2.26,2.26,0,0,1,2.3-1.7h90.3c4.2,0,5.4-.8,6.4-4.8s1.9-8,2.7-12c.7-3.6,1.2-7.2,1.7-10.9.4-2.6.1-5.2.2-7.8a52.75,52.75,0,0,0-1.1-11.9,37.72,37.72,0,0,0-7.1-16.4c-4.3-5.6-10.1-9.2-16.5-11.9a27.23,27.23,0,0,0-6.1-2c-2.3-.5-4.5-1.1-6.8-1.4a62.88,62.88,0,0,0-13.7-.5c-4,.4-8,.8-12,1.5a34.24,34.24,0,0,0-6.2,1.3,86.67,86.67,0,0,0-17.2,6.4,82.4,82.4,0,0,0-16.3,10.5,44.18,44.18,0,0,0-5.3,4.4c-3,2.8-5.8,5.7-8.7,8.7a122.46,122.46,0,0,0-10.8,14.1,107.65,107.65,0,0,0-9.8,19.1c-.9,2.4-1.7,4.9-2.6,7.3-.1.3-.1.8-.6.9-.2-1.7.8-3.2,1.1-4.8.2-.9.8-1.7.7-2.7.3-.3.3-.6.5-1,.7-.3.4-.9.5-1.4.3.9.4.5.6.2Z"/><path class="cls-1" d="M515.8,264.9c-.6-.1-.9.5-1.4.5H477.8c-1.7,0-2.3-.8-1.7-2.5.6-1.9,1-3.8,1.4-5.7a54.73,54.73,0,0,1,1.3-5.5c.5-1.6.7-3.2,1.1-4.8.6-2.3,1.1-4.6,1.8-6.8.5-1.5.6-3.1,1.1-4.7s.4-3.3,1.2-4.9c.5-.9.3-2.1.7-3.2.7-2.3,1.2-4.6,1.8-6.9.4-1.6.7-3.2,1.2-4.8s1-3.1,1.3-4.7a28.17,28.17,0,0,0,.7-3.1,41.5,41.5,0,0,1,1.1-4.8,56.58,56.58,0,0,0,1.3-5.6,34.28,34.28,0,0,1,1.1-4.6c.4-1.6.8-3.1,1.2-4.7.8-2.5,1-5.1,1.8-7.5a22.29,22.29,0,0,0,1-4.3,22.59,22.59,0,0,1,1.1-3.7,5.11,5.11,0,0,0,.3-2.1c.3-.3.3-.6.5-1a7.71,7.71,0,0,0,1-2.9c.3-.3.3-.6.5-1,.2-.1.3-.2.5-.2l.1.1c.2.9-.4,1.5-.6,2.3-.3,1.3-.9,2.5-1.2,3.8-.9,3.4-2,6.7-2.8,10.2-1.3,5.8-2.8,11.5-4.1,17.2-.7,2.9-1.5,5.8-2.1,8.7-1.7,7.4-3.7,14.7-5.4,22.1-1.5,6.4-3.2,12.8-4.7,19.2-1.1,4.9-2.1,9.8-3.3,14.7-.2.8.1,1.1.9,1.1H512c3.1,0,4.6-1.1,5.3-4.1,2.2-9,4.4-18.1,6.6-27.1,1.6-6.6,3.3-13.1,4.8-19.7,2.5-10.6,5.1-21.1,7.7-31.7.7-2.8,1.2-5.6,2.1-8.4a42.36,42.36,0,0,1,7.1-13c4.8-6,11.2-9.6,18.4-12a43.83,43.83,0,0,1,11.3-1.9c5.5-.2,10.9.6,16.4,1.1,1.9.2,3.8,0,5.7.5.7.2,1-.3,1.1-.9.5-2,1-3.9,1.5-5.9a2.22,2.22,0,0,1,.5-1.1c.1-.1.2-.1.4,0,.3.6.3,1-.3,1.4v.7c0,.5,0,.9-.5,1.2v.7c0,.5,0,.9-.5,1.2v.7c0,.5,0,.9-.5,1.2.2,1.2-.4,1.6-1.5,1.4a8.55,8.55,0,0,0-1.6,0c-.5,0-.9,0-1.2-.5H589a1.11,1.11,0,0,1-1-.5h-3.4a1.11,1.11,0,0,1-1-.5H571.1c-.2.4-.5.5-1,.5h-1.9c-.2.4-.5.5-1,.5h-1c-1,.9-2.3.9-3.5,1.4a48.85,48.85,0,0,0-6.6,2.9c-.2.1-.3.2-.5.2-.5.6-1.3.7-1.9,1.2a8.65,8.65,0,0,1-1,.7c-1.3,1.4-2.9,2.3-4.2,3.7a44.11,44.11,0,0,0-5.9,7.6c-.4.8-.9,1.6-1.4,2.4a1.55,1.55,0,0,0-.5,1.4c-.3.3-.3.6-.5,1a1.55,1.55,0,0,0-.5,1.4c-.3.3-.3.6-.5,1-.8.4-.7,1.3-.8,1.9-.3,1.6-.8,3.2-1.2,4.8a48.75,48.75,0,0,1-1.2,5.2c-.6,1.5-.6,3.2-1.1,4.8s-.7,3.2-1.2,4.7-.7,3.1-1.1,4.7c-.5,1.8-.7,3.7-1.3,5.4a35.74,35.74,0,0,0-1.1,4.7,19.48,19.48,0,0,1-.6,2.3c-.7,3-1.3,6-2.2,9a25.74,25.74,0,0,0-1.1,4.8c-.3,1.6-.9,3.1-1.3,4.7s-.6,3.5-1.1,5.2c-.6,2.2-1,4.5-1.7,6.7-.5,1.5-.7,3.1-1.1,4.7s-.8,3.2-1.3,4.9c-.3,1.1-.3,2.2-.6,3.2-.5,1.7-.9,3.4-1.3,5.1a10.66,10.66,0,0,0-.6,3,4.63,4.63,0,0,1-1.5,1.6Z"/><path class="cls-1" d="M665.6,227.3a6.52,6.52,0,0,1-2.9.9c-3.8.7-7.5,1.2-11.3,1.6a208.68,208.68,0,0,1-22.4,1c-5,0-10.1-.2-15.1-.7s-9.9-.9-14.8-1.7a26.86,26.86,0,0,0-6.9-.6,2.59,2.59,0,0,0-2.6,1.9c-1.5,5-2.7,10.2-3.9,15.3-.8,3.6-1.8,7.1-2.6,10.6a14.26,14.26,0,0,0-.7,4.6,2.79,2.79,0,0,0,2,2.6,10.55,10.55,0,0,0,3.1.4c4.5.2,8.9.6,13.4.8,4.3.2,8.7.4,13,.7,7.7.5,15.4.3,23.1.4a86.56,86.56,0,0,0,12.5-.9c4.1-.5,8.2-1.2,12.3-2,2.2-.5,4.3-1.1,6.5-1.6a5,5,0,0,1,1.2-.2c-.1.3-.4.4-.7.5-3.6.9-7.1,1.9-10.8,2.5-2.6.4-5.1,1-7.7,1.2-1.6.1-3.1.4-4.7.4a5.19,5.19,0,0,1-2.4.5H616.9a4.71,4.71,0,0,1-2.4-.5h-1.1c-4.9.4-9.8-.4-14.7-.6a49,49,0,0,1-7.7-.4,39,39,0,0,0-5.9-.4c-.6,0-1-.6-1.6-.5a1.48,1.48,0,0,1-1.2-1.4v-4.3a1.11,1.11,0,0,1,.5-1c-.3-1,.7-1.9.5-2.9a4.6,4.6,0,0,1,1-2.4c-.3-1.2.5-2.2.5-3.4a1.11,1.11,0,0,1,.5-1V246c.1-.4-.1-1,.5-1.2v-1.4a1.11,1.11,0,0,1,.5-1v-1a1.11,1.11,0,0,1,.5-1v-1a1.11,1.11,0,0,1,.5-1v-1a1.11,1.11,0,0,1,.5-1v-1a1.11,1.11,0,0,1,.5-1c-.3-1,.7-1.9.5-2.9a13.76,13.76,0,0,1,1.2-3.4,2.06,2.06,0,0,1,1.9-1H597a1.11,1.11,0,0,1,1,.5h2.4a1.11,1.11,0,0,1,1,.5h2.9a1.11,1.11,0,0,1,1,.5h4.3a1.11,1.11,0,0,1,1,.5h2.9a1.11,1.11,0,0,1,1,.5h5.8a1.11,1.11,0,0,1,1,.5h21.1c.3-.5.7-.5,1.2-.5h6c.3-.5.7-.5,1.2-.5,1.2-.1,2.4.2,3.6-.2a1,1,0,0,1,.7-.2c.9-.1,1.8.2,2.6-.2a1,1,0,0,1,.7-.2c.9-.1,1.8.2,2.6-.2a1,1,0,0,1,.7-.2,3.21,3.21,0,0,0,1.7-.2,1,1,0,0,1,.7-.2,2.54,2.54,0,0,0,1.2-.2c.3-.2.5-.3.8-.1-.6,0-.6,0-.5.1Z"/><path class="cls-1" d="M119.3,263.9c-1.7-3.5-3.6-6.9-5.5-10.2-.8-1.3-1.4-2.8-2.1-4.1-2-3.6-4-7.3-6-11-1.8-3.3-3.6-6.7-5.5-10-1.1-2-2.2-4-3.2-6a1.49,1.49,0,0,1-.2-.9c.6.1.7.6.9,1l14.1,25.8c2.5,4.5,5,9.1,7.4,13.7a8.64,8.64,0,0,0,1,1.6.74.74,0,0,0,.8.4c.4,0,.4-.5.5-.7a6.75,6.75,0,0,0,.2-1.4c.8-3.8,1.9-7.6,2.7-11.4,1.3-5.8,2.8-11.6,4.2-17.3,1.2-5,2.3-9.9,3.6-14.9.1-.5.1-.9.2-1.4s.2-.9.8-.8a.77.77,0,0,1-.1,1c-.4.4-.2,1-.2,1.4a.84.84,0,0,1-.2.7,1.72,1.72,0,0,0-.2,1.2.84.84,0,0,1-.2.7,1.72,1.72,0,0,0-.2,1.2c0,.5,0,.9-.5,1.2v1.2a1.47,1.47,0,0,1-.5,1.4v.5a1.47,1.47,0,0,1-.5,1.4v.5a.84.84,0,0,1-.2.7,1.72,1.72,0,0,0-.2,1.2,1.8,1.8,0,0,1-.2,1c-.4.3-.2.6-.2,1a1.8,1.8,0,0,1-.2,1c-.4.3-.2.6-.2,1s0,.9-.5,1.2V237a1.8,1.8,0,0,1-.2,1c-.4.3-.2.6-.2,1a1.47,1.47,0,0,1-.5,1.4v.5c0,.3.1.7-.2,1s-.2.6-.2,1,.1.7-.2,1-.2.6-.2,1a.84.84,0,0,1-.2.7,1.72,1.72,0,0,0-.2,1.2c0,.5,0,.9-.5,1.2v.7c0,.5,0,.9-.5,1.2v1.2a.84.84,0,0,1-.2.7,1.72,1.72,0,0,0-.2,1.2.84.84,0,0,1-.2.7,1.72,1.72,0,0,0-.2,1.2c0,.5,0,.9-.5,1.2v.7c0,.5,0,.9-.5,1.2v.7a.84.84,0,0,1-.2.7,1.72,1.72,0,0,0-.2,1.2c0,.5,0,.9-.5,1.2v1.7c0,.6.2,1.4-.7,1.7-1.7-.3-2.6-.3-3.1-1.3Z"/><path class="cls-1" d="M568.1,113.4H571c.2-.4.5-.5,1-.5h20.4c.5,0,.9,0,1.2.5h4.1c.5,0,.9,0,1.2.5h2.6c.5,0,.9,0,1.2.5h1.7c.5.1,1.2-.1,1.2.8-.1.1-.2.1-.4.2-3.1-.3-6.1-1-9.1-1.2a88.67,88.67,0,0,0-8.9-.6c-5.5.1-11.1-.2-16.6.5-2.6.3-5.3.8-7.9,1.2-3.4.5-6.7,1.5-10,2.3a40.09,40.09,0,0,0-7.6,2.6c-.5.2-1,.6-1.7.3-.1-.9.8-.9,1.3-1.1,2.3-.9,4.6-1.7,7-2.5h1.4c.2-.4.5-.5,1-.5h1a7.2,7.2,0,0,1,2.4-1h1.4c.2-.4.5-.5,1-.5h1.9c.2-.4.5-.5,1-.5h1.4c.2-.4.5-.5,1-.5h2.4c-.2-.4.1-.5.5-.5Z"/><path class="cls-1" d="M501.4,163.3c.7-.3.4-.9.5-1.4.3-.3.3-.6.5-1s.3-.6.5-1,.3-.6.5-1,.3-.6.5-1,.3-.6.5-1,.3-.6.5-1,.3-.6.5-1,.3-.6.5-1,.3-.6.5-1c.4-.8.9-1.6,1.4-2.4,1.4-2.5,3.3-4.7,4.9-7.1,2.4-3.5,5.5-6.2,8.4-9.3a44.49,44.49,0,0,1,7.1-5.9,34.57,34.57,0,0,1,3.1-2.2c.6-.3,1.1-1,1.9-.7.2.7-.4.8-.8,1a85.45,85.45,0,0,0-13.5,11.2,82.55,82.55,0,0,0-13,18c-1.5,2.9-2.9,5.8-4.1,8.8-.1.4-.2.8-.7.9H501V164c.2,0,.3-.4.4-.7Z"/><path class="cls-1" d="M605.1,164.2a31.22,31.22,0,0,0-.2,11.4A22,22,0,0,0,615,190c2.2,1.4,4.7,2.3,6.9,3.7a1,1,0,0,1-1,.2,45.55,45.55,0,0,1-5.8-3c-.2-.1-.3-.2-.5-.2a6.07,6.07,0,0,1-1-.7c-.2-.1-.3-.2-.5-.2a6.07,6.07,0,0,1-1-.7,30.6,30.6,0,0,1-3.6-3.6,3.59,3.59,0,0,1-.7-1c-.1-.2-.2-.3-.2-.5a16.35,16.35,0,0,1-2.6-5.5v-.7c-.5-.3-.5-.7-.5-1.2v-.7c-.4-.2-.5-.5-.5-1V167c0-.5,0-.9.5-1.2v-1.7c0-.5,0-.9.5-1.2v-1.2c.1,0,.3,0,.3.1a3.34,3.34,0,0,1-.2,2.4Z"/><path class="cls-2" d="M528.1,128.5c-.8,1.3-2.3,1.8-3.3,2.8a12.49,12.49,0,0,1-1.2.9c-2.5,2.4-4.9,4.9-7.4,7.4-1.8,1.8-3,4-4.5,5.8s-2.4,3.8-3.9,5.4a2,2,0,0,1,.3-1.1c3-4.3,5.8-8.6,9.6-12.3,3-2.9,5.8-6.1,9.3-8.3a1.52,1.52,0,0,1,1.1-.6Z"/><path class="cls-1" d="M670.8,207.1A8.21,8.21,0,0,1,677,214c.4,4.9-2,8.2-5.8,10.7a17.33,17.33,0,0,1-5.7,2.6c-.1-.1,0-.1,0-.2a23.83,23.83,0,0,0,8.2-5,3.45,3.45,0,0,1,1.2-1.2c.4-.3.3-.8.5-1.2.2-.2.2-.5.5-.7a8.27,8.27,0,0,0,0-7.2c-.2-.2-.3-.5-.5-.7s-.2-.3-.2-.5a2.34,2.34,0,0,1-.7-.7,8.07,8.07,0,0,0-2.4-1.7c-.2-.2-.5-.2-.7-.5h-.2c-.3-.2-.5-.3-.4-.6Z"/><path class="cls-4" d="M605.1,164.2c.1-.9.2-1.7.3-2.6v-.2c-.1-.6.5-1,.4-1.6v-.3c0-.5.5-1,.5-1.5v-.3l.3-1.2c0-.1.1-.2.1-.3a5.64,5.64,0,0,0,.4-1.2c0-.1.1-.2.1-.3a9,9,0,0,0,.8-2.1c0-.1.1-.2.1-.3,1-2.2,2.1-4.3,3.3-6.4a53.22,53.22,0,0,1,5.9-7.4l1.9-1.9a.94.94,0,0,1,1-.5.19.19,0,0,1,0,.3,51.5,51.5,0,0,0-7.5,8.7,47.11,47.11,0,0,0-5.3,10.8,40.26,40.26,0,0,0-1.9,7.6.72.72,0,0,1-.4.7Z"/><path class="cls-2" d="M533.1,125.7c-1.6.2-2.6,1.4-3.9,2.2-.4.3-.7.7-1.2.6a8.88,8.88,0,0,1,3.4-2.7c3-1.7,5.8-3.7,9-5a61.54,61.54,0,0,1,10.1-3.8c.4-.1.7-.8,1.2-.2a17.55,17.55,0,0,1-3.2,1.2c-1.6.7-3.3,1.3-4.9,1.9a.82.82,0,0,0-.5.5l-.1.1c-2.1.8-4.1,1.9-6.1,2.9a8.34,8.34,0,0,0-1.2.8c-.1.1-.2.1-.3.2a6.11,6.11,0,0,0-2.2,1.3C533.2,125.6,533.2,125.7,533.1,125.7Z"/><path class="cls-1" d="M635.8,198.5c2.2.5,4.5,1.1,6.7,1.6,3.4.8,6.8,1.5,10.2,2.3l11.1,2.7c.7.2,1.5.1,2.1.7l-.1.1a.76.76,0,0,1-.9-.1,1.72,1.72,0,0,0-1.2-.2.84.84,0,0,1-.7-.2,1.72,1.72,0,0,0-1.2-.2.84.84,0,0,1-.7-.2,2.2,2.2,0,0,0-1.4-.2,1.16,1.16,0,0,1-1-.2,1.72,1.72,0,0,0-1.2-.2.84.84,0,0,1-.7-.2,1.72,1.72,0,0,0-1.2-.2.84.84,0,0,1-.7-.2,1.72,1.72,0,0,0-1.2-.2.84.84,0,0,1-.7-.2,3.21,3.21,0,0,0-1.7-.2.84.84,0,0,1-.7-.2,1.72,1.72,0,0,0-1.2-.2.84.84,0,0,1-.7-.2,3.21,3.21,0,0,0-1.7-.2.84.84,0,0,1-.7-.2,1.72,1.72,0,0,0-1.2-.2c-.3,0-.7.1-1-.2s-1-.2-1.4-.2a.84.84,0,0,1-.7-.2,1.72,1.72,0,0,0-1.2-.2.84.84,0,0,1-.7-.2,1.72,1.72,0,0,0-1.2-.2.84.84,0,0,1-.7-.2,1.72,1.72,0,0,0-1.2-.2.84.84,0,0,1-.7-.2c-.2-.1-.3-.2-.5-.2l-.1-.1c.1-1.3.1-1.4.1-1.4Z"/><path class="cls-2" d="M236.6,133.5a26.58,26.58,0,0,1-3.5,3.2c-3.2,3-6.3,6-9.2,9.2a33.28,33.28,0,0,1-3.6,3.9,3.82,3.82,0,0,1,1.2-1.8,117.52,117.52,0,0,1,13.2-13.2,5,5,0,0,1,1.9-1.3Z"/><path class="cls-1" d="M801.6,79.4c-.1-1.6-.1-1.6-1.8-1.6H766.3a6.15,6.15,0,0,1-1.4-.1c.3-.4.8-.2,1.2-.2h34.3C801.9,77.4,802.1,77.9,801.6,79.4Z"/><path class="cls-1" d="M137.5,199.5c-.4.3-.2.6-.2,1s0,.9-.5,1.2v1.2a.84.84,0,0,1-.2.7,1.72,1.72,0,0,0-.2,1.2c0,.5,0,.9-.5,1.2v.7c0,.5,0,.9-.5,1.2v.7c0,.5,0,.9-.5,1.2V211c0,.5.1,1.2-.7,1.2-.1-.1-.2-.2-.2-.3a21.94,21.94,0,0,1,1-5.1c1.3-5.8,2.9-11.7,4.2-17.5a1.6,1.6,0,0,1,.5-1,.25.25,0,0,1,.4.1.9.9,0,0,1-.1,1.1c-.4.4-.2,1-.2,1.4a1.47,1.47,0,0,1-.5,1.4v.5c0,.5,0,.9-.5,1.2v.7c0,.5,0,.9-.5,1.2v.7c0,.5,0,.9-.5,1.2v.7a3.81,3.81,0,0,1-.3,1Z"/><path class="cls-1" d="M649.9,164c-2.4-.3-3.5-1.5-3.5-3.8-.1-4.4,2.3-7.2,5.9-9.1.8-.4,1.6-1.1,2.6-1-.3.7-1,.7-1.6,1a11.69,11.69,0,0,0-6,5.6c-1.5,3.3-.9,5.3,2.3,7.1C649.8,163.8,649.9,163.9,649.9,164Z"/><path class="cls-1" d="M824.6,121.8c.1-1-.6-.9-1.3-.9H793.7c-.4,0-1,.3-1.3-.3h31c1.4,0,1.6.1,1.2,1.2Z"/><path class="cls-2" d="M542.7,166.6a7.34,7.34,0,0,1,2-3.4,30.82,30.82,0,0,1,5.5-5.9,13.09,13.09,0,0,1,2.7-1.9c0,.6-.5.9-.9,1.2a34.67,34.67,0,0,0-8.2,8.9c-.4.4-.6.9-1.1,1.1Z"/><path class="cls-1" d="M147.3,158v.7c0,.5,0,.9-.5,1.2v.7c0,.5,0,.9-.5,1.2V163a1.47,1.47,0,0,1-.5,1.4v.5a.84.84,0,0,1-.2.7,1.72,1.72,0,0,0-.2,1.2c0,.3.1.7-.2,1s-.2.6-.2,1,0,.9-.5,1.2v.7c0,.3.1.7-.2,1s-.2.6-.2,1,0,.9-.5,1.2v.5c-.1,0-.1,0-.2.1l-.3-.3c-.3-1.1.3-2,.5-3,1.3-5.3,2.6-10.5,3.7-15.8.1-.4.2-.9.8-.9a.82.82,0,0,1-.2,1.2v1.2c-.1.4-.1.8-.6,1.1Z"/><path class="cls-1" d="M670.8,147.7c2.3-.2,4.5-.4,6.8-.5,3.1-.1,6.2-.2,9.2,0,2.7.2,5.4.1,8.1.5-5.7.1-11.3-.4-17-.2C675.5,147.6,673.1,147.8,670.8,147.7Z"/><path class="cls-1" d="M620.2,136.1a4.05,4.05,0,0,1-.9.5,6.91,6.91,0,0,1,2.3-2.5,64.44,64.44,0,0,1,8-5.7.6.6,0,0,1,.4-.1.37.37,0,0,1,.1.3c-.2.3-.6.3-.8.5a7.46,7.46,0,0,1-1.5.9c-1.8,1.4-3.7,2.8-5.5,4.1A6.63,6.63,0,0,1,620.2,136.1Z"/><path class="cls-2" d="M607.3,154.9v.2a2.84,2.84,0,0,0-.4,1.3v.2c-.3.3-.3.8-.4,1.2a.19.19,0,0,1-.3,0c-.4-.3-.2-.6-.1-1a57.27,57.27,0,0,1,3.3-8.1c.2-.4.4-.7.8-.7,0,1-.7,1.7-1.1,2.6a16.67,16.67,0,0,0-.8,2v.2A5.8,5.8,0,0,0,607.3,154.9Z"/><path class="cls-5" d="M688.6,251.5c1.3-1.3,3-2.1,4.5-3.3a31.6,31.6,0,0,0,4.5-3.7,3.47,3.47,0,0,1,1.9-1.2c-.1.7-.6.9-1.1,1.1l-.4.4a7.78,7.78,0,0,1-2.4,2c-.1.1-.2.1-.2.2a26.36,26.36,0,0,1-6.4,4.5c-.2.1-.3.1-.4,0Z"/><path class="cls-2" d="M208.8,243.3c2.7,2.5,5.2,5,7.7,7.7A26.9,26.9,0,0,1,208.8,243.3Z"/><path class="cls-1" d="M640.6,123.2c-3,1.5-5.9,3-8.9,4.5-.5.3-.9.9-1.6.8l-.1-.1c-.1-.3.1-.3.2-.5a15.05,15.05,0,0,0,1.7-1c.2-.2.5-.3.7-.5h.2c.2-.2.5-.3.7-.5a29.17,29.17,0,0,0,3.1-1.4c.2-.2.5-.3.7-.5h.2c.2-.2.5-.3.7-.5h.2c.2-.2.5-.3.7-.5h.2c.3-.2.5-.3.8-.1s.5.3.5.3Z"/><path class="cls-1" d="M141.8,181.5a3.21,3.21,0,0,0-.2,1.7,9.51,9.51,0,0,1-.7,2.4c-.4.3-.2.6-.2,1s0,.9-.5,1.2v.5c-.1.1-.1.1-.2,0h-.1a1.37,1.37,0,0,1-.1-1.5c1-3.8,2-7.6,2.8-11.5.1-.4.2-.9.7-1h.1a.75.75,0,0,1,0,.9,3.21,3.21,0,0,0-.2,1.7,1.47,1.47,0,0,1-.5,1.4v.5c0,.5,0,.9-.5,1.2v.7a2,2,0,0,1-.4.8Z"/><path class="cls-2" d="M615.2,190.8c1.8.8,3.5,1.7,5.3,2.6a2.7,2.7,0,0,0,1.5.3,12.23,12.23,0,0,0,2.4,1c.1.1.1.1.1.2a.1.1,0,0,1-.1.1,1.47,1.47,0,0,1-1.3.1c-2.5-1-4.8-2.2-7.1-3.3-.5-.3-.8-.5-.8-1Z"/><path class="cls-2" d="M556.1,153.2a7.35,7.35,0,0,1,3.2-1.8c2.3-.9,4.6-1.7,6.8-2.5-.1,1.2-1.3.9-1.9,1.1a62.2,62.2,0,0,0-7.1,2.9A1.33,1.33,0,0,1,556.1,153.2Z"/><path class="cls-2" d="M334.5,129.2c-2.3-2.1-4.6-4.4-6.7-6.7a1.35,1.35,0,0,1,.9.5,48.49,48.49,0,0,1,5.5,5.6l.3.6Z"/><path class="cls-2" d="M220.3,149.8c.1,1-.8,1.5-1.3,2-1.6,1.8-2.5,4.1-4.5,5.6A41.39,41.39,0,0,1,220.3,149.8Z"/><path class="cls-2" d="M453,247.6c2-2.2,4.1-4.3,6.2-6.2a2.22,2.22,0,0,1-.8,1.3,41.57,41.57,0,0,1-4.8,4.6.86.86,0,0,1-.6.3Z"/><path class="cls-1" d="M617.3,138.6c-.5,1.2-1.7,1.9-2.5,3-1,1.5-2.2,3-3.3,4.5a.22.22,0,0,1-.2-.2,1.27,1.27,0,0,1,.1-.6c.2-.2.2-.5.5-.7a2.29,2.29,0,0,0,.7-1,6.07,6.07,0,0,1,.7-1c1-1.1,1.7-2.5,2.9-3.4C616.7,139,616.9,138.6,617.3,138.6Z"/><path class="cls-1" d="M679.7,256.5c2.1-1.3,4.3-2.2,6.5-3.4.1-.1.2-.1.3-.2.5-.3.9-.9,1.6-.8l.1.1c-1.4,1.5-3.3,2-5,2.9-1.2.5-2.2,1.4-3.5,1.4Z"/><path class="cls-1" d="M735.4,251.2c1.9,1.9,3.8,3.9,5.7,5.8-1.5-.5-2.3-1.9-3.4-2.9l-1.8-1.8A1,1,0,0,1,735.4,251.2Z"/><path class="cls-1" d="M662.9,167.4a58,58,0,0,1-7.2-1.7c-.8-.2-1.8,0-2.5-.7,1.8,0,3.5.7,5.3,1a35.77,35.77,0,0,1,3.5.9A1.35,1.35,0,0,1,662.9,167.4Z"/><path class="cls-1" d="M698.3,244.5a11.41,11.41,0,0,1,1.1-1.1,39.67,39.67,0,0,0,2.9-2.9,16.61,16.61,0,0,0,1.4-1.3,1.34,1.34,0,0,1-.5,1.4,23.67,23.67,0,0,0-2.8,2.7,4.45,4.45,0,0,1-2.1,1.2Z"/><path class="cls-1" d="M688.9,251.5a55.84,55.84,0,0,0,6.4-4.4c-1.1,1.7-2.9,2.6-4.5,3.7-.8.6-1.5,1.4-2.7,1.4l-.1-.1c.1-.4.6-.4.9-.6Z"/><path class="cls-2" d="M605.1,178.4c.9,1.8,1.8,3.7,2.6,5.5a.71.71,0,0,1-.6-.3c-.7-1.4-1.5-2.9-2.2-4.4A.63.63,0,0,1,605.1,178.4Z"/><path class="cls-1" d="M728.2,219.4v11.8c-.3-.2-.2-.6-.2-.9v-10c-.1-.4-.1-.7.2-.9Z"/><path class="cls-1" d="M697.7,113.2H685.9c.2-.3.6-.3.9-.3h10c.3,0,.7,0,.9.3Z"/><path class="cls-1" d="M717.6,208.3c-.3-1.7.4-3.3.3-5-.1-1.9-.1-3.9-.1-5.8a1.69,1.69,0,0,1,.2.5,81.86,81.86,0,0,1-.3,9.9c.1.2,0,.3-.1.4Z"/><path class="cls-1" d="M606.8,115.1c.2.2.3.5.5.7a.9.9,0,0,1,0,1,1.72,1.72,0,0,0-.2,1.2.84.84,0,0,1-.2.7,1.72,1.72,0,0,0-.2,1.2.84.84,0,0,1-.2.7c-.1.2-.2.3-.2.5-.1,0-.1,0-.2.1-.1-.1-.2-.1-.2-.3a4.69,4.69,0,0,1,.4-2.4c.4-1.2.5-2.4-.5-3.3v-.1c.2-.4.6-.3,1,0Z"/><path class="cls-1" d="M602.9,133.1a1.72,1.72,0,0,0-.2,1.2c0,.5.1,1.1-.7,1.3-.1-.1-.2-.2-.2-.3,0-1.7.8-3.3,1.1-4.9.2-.7.1-1.5.7-2.1.1-.1.2,0,.3.1a1.1,1.1,0,0,1-.3,1.4v.7c0,.5,0,.9-.5,1.2v.7a.53.53,0,0,1-.2.7Z"/><path class="cls-1" d="M605.6,122.5v.7c0,.5,0,.9-.5,1.2v.7c0,.3.1.7-.2,1s-.2.6-.2,1a.84.84,0,0,1-.2.7c-.1.2-.2.3-.2.5s-.1.1-.2,0H604a1.29,1.29,0,0,1-.1-1.2c.4-1.7.9-3.3,1.3-5,.1-.4.2-.9.7-.9h.1a1,1,0,0,1-.4,1.3Z"/><path class="cls-1" d="M608.2,152.5c0-1.6,1.2-2.7,1.7-4.1.1-.2.1-.4.2-.5v-.2c.2-.2.2-.5.5-.7.1-.2.2-.3.2-.5.2-.2.3-.6.7-.5l.1.1C610.5,148.2,609.4,150.4,608.2,152.5Z"/><path class="cls-2" d="M246.2,220.3a34.08,34.08,0,0,1-3.8-3.8A7.8,7.8,0,0,1,246.2,220.3Z"/><path class="cls-1" d="M653.6,118.5a39.32,39.32,0,0,1-5.8,1.9l-.1-.1a.1.1,0,0,1,.1-.1c1.8-.6,3.5-1.1,5.3-1.7a.6.6,0,0,1,.4-.1Z"/><path class="cls-2" d="M351.3,248.1a54.36,54.36,0,0,1,4.8,4.8c-.8-.1-1.1-.7-1.6-1.2-1.1-1.2-2.5-2.1-3.2-3.6Z"/><path class="cls-2" d="M196.8,141.2c.3-.8,1.3-.9,1.9-1.4s.7-1.6,1.5-1.9a4.28,4.28,0,0,1-3.4,3.3Z"/><path class="cls-1" d="M713.5,148.6c1.5,0,3-.1,4.5,0a2.47,2.47,0,0,0,2.4-1c.1,1-.3,1.4-1.3,1.3-1.5-.1-3.1,0-4.6,0-.3,0-.7.1-1-.3Z"/><path class="cls-1" d="M673.7,258.9a20,20,0,0,1,4.8-1.9A10.56,10.56,0,0,1,673.7,258.9Z"/><path class="cls-1" d="M696,147.7a35.88,35.88,0,0,1,8,.5c-2.5.2-5-.4-7.5-.2A2.19,2.19,0,0,0,696,147.7Z"/><path class="cls-1" d="M601.3,138.8v.7c-.1.5.1,1.2-.7,1.2-.3-.3-.2-.7-.2-1,.3-1.2.7-2.4.9-3.6.1-.3.2-.7.7-.7a1.05,1.05,0,0,1,0,1.2c-.4.3-.2.6-.2,1s-.1.9-.5,1.2Z"/><path class="cls-1" d="M658.3,149.1c.2-.1.3-.3.5-.3,1.9-.1,3.8-.8,5.8-.6-1.1.2-2.3.5-3.4.7s-1.9.1-2.9.2Z"/><path class="cls-2" d="M214.5,157.5a10.7,10.7,0,0,1-2.4,3.8A9.48,9.48,0,0,1,214.5,157.5Z"/><path class="cls-2" d="M218.8,70.7c.3-.8,1.2-.7,1.7-1.3s.4-1.3,1.2-1.6A3.2,3.2,0,0,1,218.8,70.7Z"/><path class="cls-1" d="M684.8,113.2a24.75,24.75,0,0,1-6.1.5.76.76,0,0,1,.4-.2c1.9.1,3.8-.5,5.7-.3Z"/><path class="cls-1" d="M647.8,120.4a10.94,10.94,0,0,1-3.8,1.4l-.1-.1c0-.2.2-.3.3-.4a11.11,11.11,0,0,0,2.9-1,.63.63,0,0,1,.7.1Z"/><path class="cls-1" d="M713.7,186.1l-2.7-2.7C712.4,183.9,713.5,184.6,713.7,186.1Z"/><path class="cls-1" d="M644,121.8c-1.1.5-2.1,1.3-3.4,1.4-.1-.3.1-.3.3-.5.4-.2.8-.3,1.2-.5.2-.2.5-.3.7-.5h.2A.78.78,0,0,1,644,121.8Z"/><path class="cls-2" d="M394,228a13.63,13.63,0,0,1-2.4-2.4A3.25,3.25,0,0,1,394,228Z"/><path class="cls-2" d="M427.1,222.7a19.88,19.88,0,0,1-2.9,2.9A6.27,6.27,0,0,1,427.1,222.7Z"/><path class="cls-2" d="M589.5,228.5a19.57,19.57,0,0,1-1.2,3.4A4.45,4.45,0,0,1,589.5,228.5Z"/><path class="cls-1" d="M703.6,239.2a5.75,5.75,0,0,1,2-2.4C705.6,238.1,704.5,238.6,703.6,239.2Z"/><path class="cls-6" d="M732.7,247.1c1,.4,1.2,1.4,1.4,2.3-.1.1-.2.1-.2,0C733.6,248.6,732.8,248,732.7,247.1Z"/><path class="cls-2" d="M600.6,140.7c.6-.2.3-.9.7-1.2a2.37,2.37,0,0,1-1,2.6c.3-.4.2-.9.3-1.4Z"/><path class="cls-2" d="M606.8,115.1h-1.2c-.2-.6-.9-.3-1.2-.7A1.92,1.92,0,0,1,606.8,115.1Z"/><path class="cls-2" d="M239,131.6c-.7.7-1.2,1.8-2.4,1.9A4.58,4.58,0,0,1,239,131.6Z"/><path class="cls-2" d="M602,136.7v-1.2c.6-.2.3-.9.7-1.2A2,2,0,0,1,602,136.7Z"/><path class="cls-1" d="M665.2,148.1c1.5-.7,3.1-.5,4.6-.5A17.55,17.55,0,0,1,665.2,148.1Z"/><path class="cls-1" d="M658.9,117a21.24,21.24,0,0,1-3.6,1l-.1-.1a.1.1,0,0,1,.1-.1c.8-.2,1.6-.5,2.4-.7a1.07,1.07,0,0,1,1.1-.1C658.8,116.9,658.8,117,658.9,117Z"/><path class="cls-1" d="M632.5,197.5a14.6,14.6,0,0,1,3.4,1,1.05,1.05,0,0,1-1.2,0c-.3-.4-.6-.2-1-.2a.84.84,0,0,1-.7-.2c-.2-.1-.3-.2-.5-.2l-.1-.1C632.4,197.6,632.4,197.6,632.5,197.5Z"/><path class="cls-1" d="M707,234.9a4.07,4.07,0,0,1,1.4-2C708.7,234.1,707.9,234.5,707,234.9Z"/><path class="cls-1" d="M715.9,114.6a14.15,14.15,0,0,1-4.6-.5A17.55,17.55,0,0,1,715.9,114.6Z"/><path class="cls-2" d="M165.6,76.5a5.85,5.85,0,0,1,1.4-2.4A3,3,0,0,1,165.6,76.5Z"/><path class="cls-1" d="M695.5,246.9a15,15,0,0,1,2.4-2C697.3,245.8,696.9,246.9,695.5,246.9Z"/><path class="cls-2" d="M208.3,168.1a4.52,4.52,0,0,1-1.4,2.4A2.91,2.91,0,0,1,208.3,168.1Z"/><path class="cls-2" d="M210.7,163.7a4.52,4.52,0,0,1-1.4,2.4A3.21,3.21,0,0,1,210.7,163.7Z"/><path class="cls-2" d="M541.3,169a4.52,4.52,0,0,1,1.4-2.4A3.16,3.16,0,0,1,541.3,169Z"/><path class="cls-2" d="M212.1,161.3a4.52,4.52,0,0,1-1.4,2.4A3.54,3.54,0,0,1,212.1,161.3Z"/><path class="cls-2" d="M140.9,185.6a6.65,6.65,0,0,1,.7-2.4A2.19,2.19,0,0,1,140.9,185.6Z"/><path class="cls-1" d="M721.2,115.1a14.15,14.15,0,0,1-4.6-.5A18,18,0,0,1,721.2,115.1Z"/><path class="cls-2" d="M148.5,153.4a6.65,6.65,0,0,1,.7-2.4A1.88,1.88,0,0,1,148.5,153.4Z"/><path class="cls-2" d="M507.7,150.8a4.52,4.52,0,0,1-1.4,2.4A3,3,0,0,1,507.7,150.8Z"/><path class="cls-2" d="M557.1,115.3a17.25,17.25,0,0,1-2.4,1C555.2,115.3,556.2,115.3,557.1,115.3Z"/><path class="cls-2" d="M134.2,212.2c.6-.2.3-.9.7-1.2.5,1-.1,1.6-.7,2.2C133.9,212.8,133.9,212.5,134.2,212.2Z"/><path class="cls-1" d="M678.1,113.7a10.48,10.48,0,0,1-3.9.5A8.59,8.59,0,0,1,678.1,113.7Z"/><path class="cls-1" d="M624.3,194.9v-.3a4.29,4.29,0,0,1,2.4,1,.67.67,0,0,1-1,0C625.2,195.4,624.8,195.1,624.3,194.9Z"/><path class="cls-1" d="M762,264.7a16.52,16.52,0,0,1,4.4.5A21.18,21.18,0,0,1,762,264.7Z"/><path class="cls-1" d="M743,258.4a4.18,4.18,0,0,1,2.4,1.4C744.4,259.9,743.8,259,743,258.4Z"/><path class="cls-2" d="M584,251c-.4.8-.4,1.7-1,2.4C582.9,252.4,583,251.5,584,251Z"/><path class="cls-1" d="M716.1,190.4a15.93,15.93,0,0,1-1.5-2.9A4.35,4.35,0,0,1,716.1,190.4Z"/><path class="cls-1" d="M708.5,148.4a27.48,27.48,0,0,1,4.1.2C711.2,148.5,709.8,148.9,708.5,148.4Z"/><path class="cls-1" d="M705.6,236.8a3.48,3.48,0,0,1,1.5-1.9C707.1,235.9,706.2,236.3,705.6,236.8Z"/><path class="cls-2" d="M458.3,113.4a8.56,8.56,0,0,1-1.9,1.9A2.47,2.47,0,0,1,458.3,113.4Z"/><path class="cls-1" d="M733.9,249.3h.2c.4.7,1.1,1.1,1.2,1.9C734.7,250.7,733.9,250.3,733.9,249.3Z"/><path class="cls-1" d="M713.3,224.1a4.6,4.6,0,0,1,1-2.4A3,3,0,0,1,713.3,224.1Z"/><path class="cls-2" d="M553.7,154.6c.4-.8,1.3-.8,1.9-1.2C555.4,154.4,554.5,154.5,553.7,154.6Z"/><path class="cls-1" d="M710.9,183.3a4,4,0,0,1-1.9-1.5C710,181.7,710.4,182.5,710.9,183.3Z"/><path class="cls-2" d="M207.3,241.4c.6.5,1.4.9,1.4,1.9A3.42,3.42,0,0,1,207.3,241.4Z"/><path class="cls-2" d="M240.9,130.2c-.5.6-.9,1.4-1.9,1.4A3,3,0,0,1,240.9,130.2Z"/><path class="cls-2" d="M216.4,251c1,0,1.4.8,1.9,1.4A3.31,3.31,0,0,1,216.4,251Z"/><path class="cls-1" d="M702.7,113.4a23.58,23.58,0,0,1-3.7-.2C700.3,113.3,701.5,112.9,702.7,113.4Z"/><path class="cls-1" d="M673.8,114.1a7.58,7.58,0,0,1-3,.5A6.34,6.34,0,0,1,673.8,114.1Z"/><path class="cls-1" d="M717.1,211.5a13.52,13.52,0,0,1,.5-2.9C717.5,209.5,718,210.6,717.1,211.5Z"/><path class="cls-1" d="M728.2,231.7c.2,1.1.3,2.1.5,3.2C727.9,234,728.2,232.8,728.2,231.7Z"/><path class="cls-2" d="M121.7,264.9c.8-.3.2-1.2.7-1.7C122.8,264.1,123,264.8,121.7,264.9Z"/><path class="cls-2" d="M582.1,261.6a3.33,3.33,0,0,0,1.2,1.4C582.3,263,581.9,262.5,582.1,261.6Z"/><path class="cls-1" d="M727.7,121.1c0-1.1,0-2.2-.1-3.3A3.8,3.8,0,0,1,727.7,121.1Z"/><path class="cls-1" d="M704.9,148.2a9.62,9.62,0,0,1,3.4.2C707.2,148.3,706,148.7,704.9,148.2Z"/><path class="cls-1" d="M670.4,114.6a10.08,10.08,0,0,1-2.5.5C668.6,114.2,669.6,114.8,670.4,114.6Z"/><path class="cls-1" d="M708,181.3a3.2,3.2,0,0,1-1.9-1C707,180.1,707.5,180.8,708,181.3Z"/><path class="cls-1" d="M729.1,212.2a8.57,8.57,0,0,1-.5,2.7A4.85,4.85,0,0,1,729.1,212.2Z"/><path class="cls-2" d="M450.6,249.6a4.66,4.66,0,0,1,1.4-1.4A1.7,1.7,0,0,1,450.6,249.6Z"/><path class="cls-1" d="M758.9,264.2a6.18,6.18,0,0,1,2.7.5A8.08,8.08,0,0,1,758.9,264.2Z"/><path class="cls-1" d="M667.6,115.1a7.85,7.85,0,0,1-2.2.5C665.9,114.8,666.8,115.1,667.6,115.1Z"/><path class="cls-1" d="M728.7,235.1a10.27,10.27,0,0,1,.5,2.4C728.3,236.9,728.7,236,728.7,235.1Z"/><path class="cls-1" d="M665.1,115.6a4.19,4.19,0,0,1-2.2.5C663.5,115.3,664.4,115.6,665.1,115.6Z"/><path class="cls-1" d="M709,113.9a13.68,13.68,0,0,1-2.9-.2C707,113.8,708,113.3,709,113.9Z"/><path class="cls-2" d="M168.4,72.6c.3-.7.9-.7,1.4-1C169.7,72.5,169.1,72.6,168.4,72.6Z"/><path class="cls-1" d="M716.6,213.8a4.19,4.19,0,0,1,.5-2.2C717.1,212.4,717.4,213.2,716.6,213.8Z"/><path class="cls-2" d="M459.7,240.5a4.66,4.66,0,0,1,1.4-1.4A1.7,1.7,0,0,1,459.7,240.5Z"/><path class="cls-2" d="M243.8,128.3a1.66,1.66,0,0,1-1.4,1C242.6,128.6,243.1,128.4,243.8,128.3Z"/><path class="cls-2" d="M603.9,128.3h.2c.3.6.5,1.2-.5,1.4A2.23,2.23,0,0,0,603.9,128.3Z"/><path class="cls-2" d="M127.7,240.2c.2-.5.1-1,.5-1.4C128.7,239.5,128.2,239.9,127.7,240.2Z"/><path class="cls-2" d="M245.2,127.3a1.66,1.66,0,0,1-1.4,1A1.81,1.81,0,0,1,245.2,127.3Z"/><path class="cls-2" d="M242.3,129.2a1.66,1.66,0,0,1-1.4,1A1.81,1.81,0,0,1,242.3,129.2Z"/><path class="cls-2" d="M145.9,164.5c.2-.5.1-1,.5-1.4C146.9,163.7,146.4,164.1,145.9,164.5Z"/><path class="cls-1" d="M665.1,167.8a2.45,2.45,0,0,1-2-.5A2.88,2.88,0,0,1,665.1,167.8Z"/><path class="cls-1" d="M660.8,116.5a2.62,2.62,0,0,1-1.9.5v-.1c-.1-.1,0-.1,0-.2A11.08,11.08,0,0,1,660.8,116.5Z"/><path class="cls-2" d="M246.7,126.3a1.66,1.66,0,0,1-1.4,1A1.54,1.54,0,0,1,246.7,126.3Z"/><path class="cls-2" d="M206.4,240a1.66,1.66,0,0,1,1,1.4A1.46,1.46,0,0,1,206.4,240Z"/><path class="cls-1" d="M705.6,113.7a5,5,0,0,1-2.7-.2C703.8,113.5,704.8,113.1,705.6,113.7Z"/><path class="cls-1" d="M669.4,168.8a7.34,7.34,0,0,1-2-.5C668.1,168.4,668.9,167.9,669.4,168.8Z"/><path class="cls-1" d="M671.3,169.3a2.51,2.51,0,0,1-1.9-.5A2.62,2.62,0,0,1,671.3,169.3Z"/><path class="cls-1" d="M800.1,85.8a2.88,2.88,0,0,1,.5-2C800.6,84.6,800.8,85.3,800.1,85.8Z"/><path class="cls-2" d="M142.5,178.4c.2-.5.1-1,.5-1.4C143.6,177.6,143.1,178,142.5,178.4Z"/><path class="cls-2" d="M147.8,155.6a1.91,1.91,0,0,0,.2-1.3v-.2h.3C148.6,154.8,148.8,155.4,147.8,155.6Z"/><path class="cls-2" d="M205.4,238.5a1.66,1.66,0,0,1,1,1.4A1.54,1.54,0,0,1,205.4,238.5Z"/><path class="cls-2" d="M249.1,124.9a1.66,1.66,0,0,1-1.4,1A1.54,1.54,0,0,1,249.1,124.9Z"/><path class="cls-2" d="M139.2,192.3c.2-.5.1-1,.5-1.4C140.2,191.5,139.7,191.9,139.2,192.3Z"/><path class="cls-2" d="M204,236.1a1.66,1.66,0,0,1,1,1.4A1.31,1.31,0,0,1,204,236.1Z"/><path class="cls-2" d="M253.4,122.5a1.66,1.66,0,0,1-1.4,1A1.54,1.54,0,0,1,253.4,122.5Z"/><path class="cls-1" d="M724.3,115.4a24.77,24.77,0,0,1-2.7-.3C722.5,115.2,723.5,114.7,724.3,115.4Z"/><path class="cls-1" d="M801.1,81.5a2.88,2.88,0,0,1,.5-2C801.6,80.2,801.7,81,801.1,81.5Z"/><path class="cls-2" d="M605.6,122.5c.3-.4.2-.9.3-1.4h.2C606.3,121.7,606.6,122.3,605.6,122.5Z"/><path class="cls-1" d="M656.4,149.6a2.62,2.62,0,0,1,1.9-.5A2.51,2.51,0,0,1,656.4,149.6Z"/><path class="cls-1" d="M708.4,233a2.52,2.52,0,0,1,1-1.5C709.5,232.3,709.1,232.7,708.4,233Z"/><path class="cls-1" d="M662.8,116.1a3.51,3.51,0,0,1-2,.5A2,2,0,0,1,662.8,116.1Z"/><path class="cls-2" d="M220.3,253.9c.7-.1,1.1.4,1.4,1A2.07,2.07,0,0,1,220.3,253.9Z"/><path class="cls-1" d="M729.6,209.8a3.42,3.42,0,0,1-.5,2.2A4,4,0,0,1,729.6,209.8Z"/><path class="cls-2" d="M318.2,260.1a4.66,4.66,0,0,1,1.4-1.4A2,2,0,0,1,318.2,260.1Z"/><path class="cls-1" d="M134.2,212.2v.9a1.16,1.16,0,0,0-.2,1c-.1,0-.1,0-.2.1-.1-.1-.2-.1-.3-.3C133.4,213.2,133.2,212.5,134.2,212.2Z"/><path class="cls-1" d="M133.4,215.5v.5a.25.25,0,0,1-.4-.1c-.2-.8-.4-1.5.6-1.9h.1a1,1,0,0,1-.3,1.5Z"/><path class="cls-2" d="M133.4,215.5c.3-.4.2-.9.3-1.4h.2C134.2,214.7,134.4,215.3,133.4,215.5Z"/><path class="cls-1" d="M754.3,263.2a2.45,2.45,0,0,1,2,.5A2.88,2.88,0,0,1,754.3,263.2Z"/><path class="cls-2" d="M515.8,264.9a4.66,4.66,0,0,1,1.4-1.4A1.7,1.7,0,0,1,515.8,264.9Z"/><path class="cls-2" d="M130.5,228.2c.2-.5.1-1,.5-1.4C131.6,227.5,131.1,227.9,130.5,228.2Z"/><path class="cls-2" d="M131,226.3c.2-.5.1-1,.5-1.4C132,225.6,131.6,226,131,226.3Z"/><path class="cls-1" d="M667.2,168.3a3.51,3.51,0,0,1-2-.5C665.9,167.8,666.7,167.6,667.2,168.3Z"/><path class="cls-1" d="M757.9,91.8a2.88,2.88,0,0,1-.5,2A3.51,3.51,0,0,1,757.9,91.8Z"/><path class="cls-1" d="M685.4,173.1a2.62,2.62,0,0,1-1.7-.5C684.4,172.6,685,172.5,685.4,173.1Z"/><path class="cls-2" d="M150.2,146c.3-.3.1-.9.5-1.2C151.1,145.4,151,145.8,150.2,146Z"/><path class="cls-2" d="M599.3,146c.3-.3.1-.9.5-1.2C600.2,145.4,600.1,145.8,599.3,146Z"/><path class="cls-1" d="M797.7,96.6a2.45,2.45,0,0,1,.5-2A2.75,2.75,0,0,1,797.7,96.6Z"/><path class="cls-1" d="M745,145.5a2.88,2.88,0,0,1-.5,2A3.51,3.51,0,0,1,745,145.5Z"/><path class="cls-1" d="M745.5,143.6a2.16,2.16,0,0,1-.5,1.9A2.75,2.75,0,0,1,745.5,143.6Z"/><path class="cls-1" d="M796.8,100.9a2.45,2.45,0,0,1,.5-2A3.32,3.32,0,0,1,796.8,100.9Z"/><path class="cls-2" d="M122.4,261.6c.3-.3.1-.9.5-1.2C123.3,261,123.2,261.4,122.4,261.6Z"/><path class="cls-2" d="M149.7,147.9c.3-.3.1-.9.5-1.2C150.6,147.4,150.5,147.8,149.7,147.9Z"/><path class="cls-2" d="M598.9,147.9c.3-.3.1-.9.5-1.2C599.8,147.4,599.6,147.8,598.9,147.9Z"/><path class="cls-1" d="M795.8,105.3a2.45,2.45,0,0,1,.5-2A3.72,3.72,0,0,1,795.8,105.3Z"/><path class="cls-2" d="M599.8,144.1c.3-.3.1-.9.5-1.2C600.7,143.5,600.6,143.9,599.8,144.1Z"/><path class="cls-2" d="M150.7,144.1c.3-.3.1-.9.5-1.2C151.6,143.5,151.5,143.9,150.7,144.1Z"/><path class="cls-2" d="M123.3,257.7c.3-.3.1-.9.5-1.2C124.3,257.2,124.1,257.6,123.3,257.7Z"/><path class="cls-2" d="M123.8,255.8c.3-.3.1-.9.5-1.2C124.7,255.2,124.6,255.6,123.8,255.8Z"/><path class="cls-1" d="M754.6,105.7a2.45,2.45,0,0,1-.5,2A2.88,2.88,0,0,1,754.6,105.7Z"/><path class="cls-2" d="M125.3,249.6c.3-.3.1-.9.5-1.2C126.2,249,126,249.4,125.3,249.6Z"/><path class="cls-2" d="M593.6,113.4c-.4-.3-.9-.1-1.2-.5C593,112.5,593.4,112.6,593.6,113.4Z"/><path class="cls-1" d="M798.7,92.3a3.72,3.72,0,0,1,.5-2C799.2,91,799.3,91.8,798.7,92.3Z"/><path class="cls-1" d="M800.6,83.7a3.72,3.72,0,0,1,.5-2C801.1,82.4,801.3,83.1,800.6,83.7Z"/><path class="cls-1" d="M758.4,89.9a2.16,2.16,0,0,1-.5,1.9A3.39,3.39,0,0,1,758.4,89.9Z"/><path class="cls-2" d="M125.7,247.6c.3-.3.1-.9.5-1.2C126.7,247.1,126.5,247.5,125.7,247.6Z"/><path class="cls-2" d="M162.7,89.9c.3-.3.1-.9.5-1.2C163.6,89.3,163.5,89.8,162.7,89.9Z"/><path class="cls-2" d="M598.9,113.9c-.3-.3-.9-.1-1.2-.5C598.3,113,598.7,113.1,598.9,113.9Z"/><path class="cls-2" d="M149.3,149.8c.3-.3.1-.9.5-1.2C150.2,149.3,150,149.7,149.3,149.8Z"/><path class="cls-2" d="M601.3,138.8c.3-.3.1-.9.5-1.2C602.2,138.2,602,138.7,601.3,138.8Z"/><path class="cls-2" d="M594.5,148.9c.4.3.9.1,1.2.5C595.1,149.8,594.7,149.7,594.5,148.9Z"/><path class="cls-2" d="M602.7,114.4c-.3-.3-.9-.1-1.2-.5C602.1,113.4,602.5,113.6,602.7,114.4Z"/><path class="cls-1" d="M729.1,237.6a4.14,4.14,0,0,1,.5,1.9C728.9,239,729.2,238.2,729.1,237.6Z"/><path class="cls-2" d="M163.2,87.5c.3-.3.1-.9.5-1.2C164.1,86.9,163.9,87.4,163.2,87.5Z"/><path class="cls-2" d="M164.1,83.2c.3-.3.1-.9.5-1.2C165,82.6,164.9,83,164.1,83.2Z"/><path class="cls-1" d="M799.7,88a3.72,3.72,0,0,1,.5-2C800.1,86.7,800.3,87.4,799.7,88Z"/><path class="cls-2" d="M128.6,235.7c.3-.3.1-.9.5-1.2C129.5,235.1,129.4,235.5,128.6,235.7Z"/><path class="cls-1" d="M752.2,115.8a2.16,2.16,0,0,1-.5,1.9A3.2,3.2,0,0,1,752.2,115.8Z"/><path class="cls-2" d="M642.8,229.9c-.3.4-.9.2-1.2.5C641.7,229.6,642.1,229.5,642.8,229.9Z"/><path class="cls-6" d="M709.7,230.6c-.1-.7.4-1.1.9-1.5.3.6-.3.8-.5,1.2-.1.1-.1.2-.2.3S709.8,230.7,709.7,230.6Z"/><path class="cls-2" d="M650,229.4c-.3.4-.8.2-1.2.5C648.9,229.1,649.3,229,650,229.4Z"/><path class="cls-1" d="M792.9,118.2a2.45,2.45,0,0,1,.5-2A2.88,2.88,0,0,1,792.9,118.2Z"/><path class="cls-2" d="M163.6,85.6c.3-.3.1-.9.5-1.2C164.6,85,164.4,85.4,163.6,85.6Z"/><path class="cls-2" d="M131.5,223.7c.3-.3.1-.9.5-1.2C132.4,223.1,132.3,223.5,131.5,223.7Z"/><path class="cls-1" d="M751.7,117.7a2.51,2.51,0,0,1-.5,1.9A3.39,3.39,0,0,1,751.7,117.7Z"/><path class="cls-1" d="M715.7,217.7a2.62,2.62,0,0,1,.5-1.7C716.2,216.6,716.3,217.2,715.7,217.7Z"/><path class="cls-1" d="M716.2,215.8a3.09,3.09,0,0,1,.5-1.8A2.38,2.38,0,0,1,716.2,215.8Z"/><path class="cls-1" d="M655.3,118a3.37,3.37,0,0,1-1.7.5v-.1c-.1-.3.1-.3.3-.5h.5A.77.77,0,0,1,655.3,118Z"/><path class="cls-2" d="M147.3,158c.3-.3.1-.9.5-1.2C148.2,157.4,148.1,157.8,147.3,158Z"/><path class="cls-1" d="M751.2,119.6a2.88,2.88,0,0,1-.5,2A3.51,3.51,0,0,1,751.2,119.6Z"/><path class="cls-2" d="M603.2,131.6c.3-.3.1-.9.5-1.2C604.1,131.1,603.9,131.5,603.2,131.6Z"/><path class="cls-2" d="M134.9,209.8c.3-.3.1-.9.5-1.2C135.8,209.2,135.6,209.6,134.9,209.8Z"/><path class="cls-1" d="M730.1,207.4a2.45,2.45,0,0,1-.5,2A3.51,3.51,0,0,1,730.1,207.4Z"/><path class="cls-2" d="M605.6,159.7c-.4-.6-.3-1,.5-1.2a5,5,0,0,1-.2,1.2C605.7,159.8,605.7,159.8,605.6,159.7Z"/><path class="cls-2" d="M146.9,159.9c.3-.3.1-.9.5-1.2C147.8,159.3,147.6,159.8,146.9,159.9Z"/><path class="cls-1" d="M727.1,123c.1-.7,0-1.4.6-1.9A2.86,2.86,0,0,1,727.1,123Z"/><path class="cls-2" d="M135.3,207.9c.3-.3.1-.9.5-1.2C136.3,207.3,136.1,207.7,135.3,207.9Z"/><path class="cls-1" d="M667.7,206.1a2.62,2.62,0,0,1,1.7.5l-.1.1a.76.76,0,0,1-.9-.1C668.2,206.5,667.8,206.5,667.7,206.1Z"/><path class="cls-1" d="M666.1,205.7c.6,0,1.2-.1,1.7.5-.6.2-1.1-.2-1.7-.2a.1.1,0,0,1-.1-.1C666,205.7,666,205.7,666.1,205.7Z"/><path class="cls-2" d="M605.4,161.6h-.3c-.4-.6-.3-1,.5-1.2C605.6,160.8,605.4,161.2,605.4,161.6Z"/><path class="cls-2" d="M146.4,161.8c.3-.3.1-.9.5-1.2C147.3,161.3,147.1,161.7,146.4,161.8Z"/><path class="cls-2" d="M135.8,205.9c.3-.3.1-.9.5-1.2C136.7,205.4,136.6,205.8,135.8,205.9Z"/><path class="cls-2" d="M136.8,201.6c.3-.3.1-.9.5-1.2C137.7,201.1,137.5,201.5,136.8,201.6Z"/><path class="cls-2" d="M165.1,78.9c.3-.3.1-.9.5-1.2C166,78.3,165.9,78.7,165.1,78.9Z"/><path class="cls-2" d="M137.7,197.8c.3-.3.1-.9.5-1.2C138.6,197.2,138.5,197.6,137.7,197.8Z"/><path class="cls-2" d="M605.1,162.8c-.3.3-.1.9-.5,1.2C604.2,163.4,604.3,162.9,605.1,162.8Z"/><path class="cls-1" d="M733,195.4c0,.7.1,1.4-.5,1.9A3.2,3.2,0,0,1,733,195.4Z"/><path class="cls-2" d="M138.2,195.9c.3-.3.1-.9.5-1.2C139.1,195.3,139,195.7,138.2,195.9Z"/><path class="cls-2" d="M138.7,193.9c.3-.3.1-.9.5-1.2C139.6,193.4,139.5,193.8,138.7,193.9Z"/><path class="cls-2" d="M605.1,124.4c.3-.3.1-.9.5-1.2C606,123.9,605.9,124.3,605.1,124.4Z"/><path class="cls-1" d="M651.6,164.5c-.6,0-1.3.1-1.7-.5A1.85,1.85,0,0,1,651.6,164.5Z"/><path class="cls-1" d="M653.3,165a2.62,2.62,0,0,1-1.7-.5C652.2,164.5,652.9,164.3,653.3,165Z"/><path class="cls-2" d="M140.1,187.7c.3-.3.1-.9.5-1.2C141,187.2,140.9,187.6,140.1,187.7Z"/><path class="cls-2" d="M142.1,180c.3-.3.1-.9.5-1.2C143,179.5,142.8,179.9,142.1,180Z"/><path class="cls-2" d="M604.6,176.4c.4.3.2.9.5,1.2C604.3,177.5,604.2,177.1,604.6,176.4Z"/><path class="cls-2" d="M604.6,165.7c-.3.3-.1.9-.5,1.2C603.7,166.2,603.8,165.8,604.6,165.7Z"/><path class="cls-1" d="M694.8,176a3.37,3.37,0,0,1-1.7-.5C693.7,175.6,694.4,175.2,694.8,176Z"/><path class="cls-2" d="M143.5,173.8c.3-.3.1-.9.5-1.2C144.4,173.2,144.3,173.7,143.5,173.8Z"/><path class="cls-1" d="M738.7,171.4a2.88,2.88,0,0,1-.5,2A3.51,3.51,0,0,1,738.7,171.4Z"/><path class="cls-1" d="M678.7,171.2a2.16,2.16,0,0,1-1.7-.5C677.7,170.7,678.3,170.6,678.7,171.2Z"/><path class="cls-1" d="M677.1,170.7a3.37,3.37,0,0,1-1.7-.5C675.9,170.3,676.7,169.9,677.1,170.7Z"/><path class="cls-1" d="M725.8,128.3c0-.6-.1-1.3.5-1.7A2.62,2.62,0,0,1,725.8,128.3Z"/><path class="cls-1" d="M675.1,170.2a3.37,3.37,0,0,1-1.7-.5C674,169.8,674.7,169.5,675.1,170.2Z"/><path class="cls-2" d="M162.2,91.8c.3-.3.1-.9.5-1.2C163.1,91.3,163,91.7,162.2,91.8Z"/><path class="cls-1" d="M739.2,169.5a2.16,2.16,0,0,1-.5,1.9A3.2,3.2,0,0,1,739.2,169.5Z"/><path class="cls-2" d="M144.5,170c.3-.3.1-.9.5-1.2C145.4,169.4,145.2,169.8,144.5,170Z"/><path class="cls-1" d="M673.2,169.7a3.37,3.37,0,0,1-1.7-.5C672.1,169.3,672.8,169,673.2,169.7Z"/><path class="cls-1" d="M721,145.8a2.16,2.16,0,0,1,.5-1.7A2.62,2.62,0,0,1,721,145.8Z"/><path class="cls-1" d="M727.4,117.3a15.38,15.38,0,0,1-1.2-1.3C726.9,116.2,727.4,116.6,727.4,117.3Z"/><path class="cls-1" d="M798.2,94.5a2.88,2.88,0,0,1,.5-2A3.51,3.51,0,0,1,798.2,94.5Z"/><path class="cls-1" d="M759.4,85.8a3.51,3.51,0,0,1-.5,2A2.88,2.88,0,0,1,759.4,85.8Z"/><path class="cls-1" d="M757.4,94a2.16,2.16,0,0,1-.5,1.7A2.62,2.62,0,0,1,757.4,94Z"/><path class="cls-2" d="M611.6,146c-.2.2-.5.3-.7.5-.1-.6.2-.9.7-1.2Z"/><path class="cls-2" d="M658.8,116.8v.2h-1.2C657.9,116.5,658.3,116.3,658.8,116.8Z"/><path class="cls-2" d="M674.9,220.8a3.45,3.45,0,0,1-1.2,1.2A1.29,1.29,0,0,1,674.9,220.8Z"/><path class="cls-1" d="M680.4,171.7a2,2,0,0,1-1.5-.5C679.5,171.2,680.1,171,680.4,171.7Z"/><path class="cls-1" d="M743.5,151.5a2.88,2.88,0,0,1-.5,2A3.51,3.51,0,0,1,743.5,151.5Z"/><path class="cls-1" d="M682.1,172.1a1.94,1.94,0,0,1-1.6-.5A1.84,1.84,0,0,1,682.1,172.1Z"/><path class="cls-1" d="M714.7,220.5c.1-.5,0-1.1.5-1.5C715.2,219.6,715.2,220.2,714.7,220.5Z"/><path class="cls-1" d="M683.8,172.6a2,2,0,0,1-1.5-.5C682.8,172.2,683.4,171.9,683.8,172.6Z"/><path class="cls-1" d="M797.3,98.8a2.88,2.88,0,0,1,.5-2A4.55,4.55,0,0,1,797.3,98.8Z"/><path class="cls-1" d="M715.2,219.1a2.39,2.39,0,0,1,.5-1.4C715.5,218.1,716.1,218.9,715.2,219.1Z"/><path class="cls-2" d="M133.2,216h.3c.1.4.6,1-.2,1.2v-1C133.1,216.1,133.1,216.1,133.2,216Z"/><path class="cls-1" d="M686.9,173.6c-.5,0-1.1.1-1.5-.5A1.44,1.44,0,0,1,686.9,173.6Z"/><path class="cls-1" d="M688.6,174.1a2,2,0,0,1-1.5-.5C687.6,173.6,688.2,173.3,688.6,174.1Z"/><path class="cls-1" d="M792.5,120.4a2.88,2.88,0,0,1,.5-2A4.55,4.55,0,0,1,792.5,120.4Z"/><path class="cls-1" d="M655,150.1a2,2,0,0,1,1.5-.5C656.1,150.3,655.5,150,655,150.1Z"/><path class="cls-1" d="M690,174.5a2.1,2.1,0,0,1-1.5-.5C689.1,174.1,689.7,173.9,690,174.5Z"/><path class="cls-1" d="M749.8,125.6a2.88,2.88,0,0,1-.5,2A3.51,3.51,0,0,1,749.8,125.6Z"/><path class="cls-1" d="M793.4,116a2.88,2.88,0,0,1,.5-2A3.32,3.32,0,0,1,793.4,116Z"/><path class="cls-1" d="M691.5,175a2.1,2.1,0,0,1-1.5-.5C690.5,174.6,691.1,174.3,691.5,175Z"/><path class="cls-1" d="M669.4,260.3a2,2,0,0,1,1.5-.5C670.5,260.6,669.9,260.3,669.4,260.3Z"/><path class="cls-1" d="M605.8,159.7a1.72,1.72,0,0,1,.2-1.2v-.7h.3A3.2,3.2,0,0,1,605.8,159.7Z"/><path class="cls-1" d="M693.1,175.5a1.65,1.65,0,0,1-1.5-.5A1.65,1.65,0,0,1,693.1,175.5Z"/><path class="cls-1" d="M729.6,239.5a2,2,0,0,1,.5,1.5C729.4,240.6,729.6,240,729.6,239.5Z"/><path class="cls-2" d="M670.8,207.1c.1.2.1.3.2.5-.4-.1-1,.3-1.2-.5A1.16,1.16,0,0,1,670.8,207.1Z"/><path class="cls-1" d="M670.8,259.9a2,2,0,0,1,1.5-.5C672,260.1,671.3,259.8,670.8,259.9Z"/><path class="cls-1" d="M670.9,207.1h-1.2c-.1-.1-.4-.2-.3-.5A2.1,2.1,0,0,1,670.9,207.1Z"/><path class="cls-1" d="M605.4,161.6a1.72,1.72,0,0,1,.2-1.2v-.7h.3A4.14,4.14,0,0,1,605.4,161.6Z"/><path class="cls-1" d="M746.9,137.6a3.51,3.51,0,0,1-.5,2A3.51,3.51,0,0,1,746.9,137.6Z"/><path class="cls-1" d="M672.2,259.4a2,2,0,0,1,1.5-.5C673.4,259.6,672.8,259.3,672.2,259.4Z"/><path class="cls-1" d="M700.1,177.9a1.87,1.87,0,0,1-1.4-.5C699.2,177.5,699.8,177.2,700.1,177.9Z"/><path class="cls-1" d="M737.3,177.4a2.88,2.88,0,0,1-.5,2A3.51,3.51,0,0,1,737.3,177.4Z"/><path class="cls-1" d="M731.1,203.3a2.62,2.62,0,0,1-.5,1.9A2.62,2.62,0,0,1,731.1,203.3Z"/><path class="cls-1" d="M799.2,90.2a2.88,2.88,0,0,1,.5-2A3.72,3.72,0,0,1,799.2,90.2Z"/><path class="cls-1" d="M756,99.7a3.51,3.51,0,0,1-.5,2A3.51,3.51,0,0,1,756,99.7Z"/><path class="cls-1" d="M796.3,103.1a2.88,2.88,0,0,1,.5-2A3.51,3.51,0,0,1,796.3,103.1Z"/><path class="cls-2" d="M585.4,244.8c-.3.3-.1.9-.5,1.2C584.6,245.4,584.6,244.9,585.4,244.8Z"/><path class="cls-2" d="M634.6,198.5h1.2v.2C635.4,198.9,634.8,199.4,634.6,198.5Z"/><path class="cls-2" d="M643.9,121.8H643c.2-.8.8-.4,1.2-.5C644.1,121.5,644,121.6,643.9,121.8Z"/><path class="cls-1" d="M631,197a1.87,1.87,0,0,1,1.4.5.75.75,0,0,1-.9,0c-.2-.1-.3-.2-.5-.2l-.1-.1C631,197.1,631,197.1,631,197Z"/><path class="cls-1" d="M629.6,196.6a1.87,1.87,0,0,1,1.4.5.75.75,0,0,1-.9,0c-.2-.1-.3-.2-.5-.2l-.1-.1C629.5,196.7,629.5,196.6,629.6,196.6Z"/><path class="cls-1" d="M721.4,144.1a2.38,2.38,0,0,1,.5-1.8A3.09,3.09,0,0,1,721.4,144.1Z"/><path class="cls-1" d="M795.3,107.4a2.88,2.88,0,0,1,.5-2A3.51,3.51,0,0,1,795.3,107.4Z"/><path class="cls-1" d="M628.1,196.1a1.87,1.87,0,0,1,1.4.5.75.75,0,0,1-.9,0c-.2-.1-.3-.2-.5-.2Z"/><path class="cls-2" d="M625.7,195.6h1a1.38,1.38,0,0,1,.3.4.1.1,0,0,1-.1.1C626.5,196,625.9,196.4,625.7,195.6Z"/><path class="cls-1" d="M753.1,111.7a2.88,2.88,0,0,1-.5,2A3.51,3.51,0,0,1,753.1,111.7Z"/><path class="cls-1" d="M714.7,187.5a2.68,2.68,0,0,1-1-1.5A2.15,2.15,0,0,1,714.7,187.5Z"/><path class="cls-2" d="M640.8,122.8c-.1.2-.2.3-.3.5h-.9C639.8,122.5,640.4,122.9,640.8,122.8Z"/><path class="cls-1" d="M740.7,163.5a3.51,3.51,0,0,1-.5,2A2.88,2.88,0,0,1,740.7,163.5Z"/><path class="cls-1" d="M794.4,111.7a2.88,2.88,0,0,1,.5-2A3.32,3.32,0,0,1,794.4,111.7Z"/><path class="cls-1" d="M762.4,78.4a3.45,3.45,0,0,1-1.2,1.2A1.63,1.63,0,0,1,762.4,78.4Z"/><path class="cls-1" d="M734.4,189.4a3.51,3.51,0,0,1-.5,2A3.51,3.51,0,0,1,734.4,189.4Z"/><path class="cls-2" d="M612.3,188.9c.5,0,.7.3,1,.7C612.7,189.7,612.3,189.5,612.3,188.9Z"/><path class="cls-2" d="M139.9,188.2h.2c.3.5.4.9-.2,1.2Z"/><path class="cls-2" d="M613.7,189.9c.5,0,.7.3,1,.7C614.2,190.6,613.8,190.5,613.7,189.9Z"/><path class="cls-1" d="M734.9,187.5a3.09,3.09,0,0,1-.5,1.8A2.73,2.73,0,0,1,734.9,187.5Z"/><path class="cls-1" d="M759.8,83.9a2.5,2.5,0,0,1-.5,1.8A5.34,5.34,0,0,1,759.8,83.9Z"/><path class="cls-1" d="M733.9,191.6a3.37,3.37,0,0,1-.5,1.7A2.62,2.62,0,0,1,733.9,191.6Z"/><path class="cls-1" d="M717.1,193.3a2,2,0,0,1-.4-1.5C717.3,192.1,717.1,192.7,717.1,193.3Z"/><path class="cls-1" d="M753.6,109.8a2.5,2.5,0,0,1-.5,1.8A3.45,3.45,0,0,1,753.6,109.8Z"/><path class="cls-1" d="M754.1,107.9a2.16,2.16,0,0,1-.5,1.7A2.62,2.62,0,0,1,754.1,107.9Z"/><path class="cls-1" d="M735.4,185.6a2.16,2.16,0,0,1-.5,1.7A2.62,2.62,0,0,1,735.4,185.6Z"/><path class="cls-1" d="M750.7,121.8a2.16,2.16,0,0,1-.5,1.7A4.8,4.8,0,0,1,750.7,121.8Z"/><path class="cls-2" d="M608,184.4a1.09,1.09,0,0,1,.7,1A.77.77,0,0,1,608,184.4Z"/><path class="cls-1" d="M744.5,147.7a2.16,2.16,0,0,1-.5,1.7A2.62,2.62,0,0,1,744.5,147.7Z"/><path class="cls-2" d="M604.6,228.9a9.29,9.29,0,0,0-1-.5C604.3,228,604.5,228.4,604.6,228.9Z"/><path class="cls-2" d="M553.7,116.3a9.29,9.29,0,0,1-1,.5C552.9,116.2,553.1,115.8,553.7,116.3Z"/><path class="cls-2" d="M628.1,196.1v.3c-.5.3-.9.4-1.2-.2C627.3,195.8,627.7,196,628.1,196.1Z"/><path class="cls-2" d="M600.8,228.5a9.29,9.29,0,0,0-1-.5C600.5,227.5,600.6,227.9,600.8,228.5Z"/><path class="cls-1" d="M741.1,161.6a3.09,3.09,0,0,1-.5,1.8A4.76,4.76,0,0,1,741.1,161.6Z"/><path class="cls-2" d="M609.9,229.4a9.29,9.29,0,0,0-1-.5C609.6,228.4,609.8,228.9,609.9,229.4Z"/><path class="cls-2" d="M582.5,256.3a9.29,9.29,0,0,0-.5,1C581.5,256.6,582,256.4,582.5,256.3Z"/><path class="cls-2" d="M597.4,228a9.29,9.29,0,0,0-1-.5C597.1,227,597.3,227.4,597.4,228Z"/><path class="cls-1" d="M728.4,217a13.55,13.55,0,0,1-.2,2C728.3,218.3,727.9,217.6,728.4,217Z"/><path class="cls-2" d="M665.5,227v.2h-.9C664.8,226.6,665.1,226.7,665.5,227Z"/><path class="cls-2" d="M572,112.9a9.29,9.29,0,0,1-1,.5C571.1,112.8,571.3,112.4,572,112.9Z"/><path class="cls-2" d="M613.5,142.6c0,.5-.3.7-.7,1A.77.77,0,0,1,613.5,142.6Z"/><path class="cls-2" d="M570.1,148.4a9.29,9.29,0,0,1,1-.5C570.9,148.5,570.7,148.9,570.1,148.4Z"/><path class="cls-1" d="M760.3,82a2.16,2.16,0,0,1-.5,1.7A4.8,4.8,0,0,1,760.3,82Z"/><path class="cls-1" d="M678.5,257a1.35,1.35,0,0,1,1.2-.5C679.6,257.3,678.9,256.9,678.5,257Z"/><path class="cls-2" d="M583.5,147.9a9.29,9.29,0,0,0,1,.5C583.8,148.9,583.6,148.5,583.5,147.9Z"/><path class="cls-2" d="M613.7,229.9a9.29,9.29,0,0,0-1-.5C613.4,228.9,613.6,229.4,613.7,229.9Z"/><path class="cls-1" d="M746.4,139.8a3.37,3.37,0,0,1-.5,1.7A2.62,2.62,0,0,1,746.4,139.8Z"/><path class="cls-1" d="M732,199.5a2.16,2.16,0,0,1-.5,1.7A4.8,4.8,0,0,1,732,199.5Z"/><path class="cls-2" d="M584.9,246.7a9.29,9.29,0,0,0-.5,1C583.9,247,584.4,246.8,584.9,246.7Z"/><path class="cls-1" d="M724.8,131.9a2.16,2.16,0,0,1,.5-1.7A4.06,4.06,0,0,1,724.8,131.9Z"/><path class="cls-2" d="M567.2,148.9a9.29,9.29,0,0,1,1-.5C568,149,567.8,149.4,567.2,148.9Z"/><path class="cls-2" d="M644.2,200.9c.3,0,.7-.1,1,.2C644.7,201.5,644.4,201.6,644.2,200.9Z"/><path class="cls-2" d="M587.8,148.4a9.29,9.29,0,0,0,1,.5C588.1,149.4,587.9,149,587.8,148.4Z"/><path class="cls-2" d="M161.7,94.2a9.29,9.29,0,0,0,.5-1C162.7,93.9,162.3,94.1,161.7,94.2Z"/><path class="cls-1" d="M731.1,243.5c.5.3.4.8.5,1.2C730.9,244.5,731,244,731.1,243.5Z"/><path class="cls-2" d="M568.1,113.4a9.29,9.29,0,0,1-1,.5C567.3,113.3,567.5,112.9,568.1,113.4Z"/><path class="cls-1" d="M726.2,126.6a2.62,2.62,0,0,1,.5-1.7A2.62,2.62,0,0,1,726.2,126.6Z"/><path class="cls-2" d="M126.9,243.6c0-.3-.1-.7.2-1C127.5,243,127.6,243.4,126.9,243.6Z"/><path class="cls-1" d="M723.8,135.2a1.65,1.65,0,0,1,.5-1.5A2.1,2.1,0,0,1,723.8,135.2Z"/><path class="cls-2" d="M585.9,242.4a9.29,9.29,0,0,0-.5,1C584.9,242.7,585.3,242.5,585.9,242.4Z"/><path class="cls-1" d="M710.1,230.4a6.12,6.12,0,0,0,.5-1.2c.1,0,.1-.1.2-.1A.9.9,0,0,1,710.1,230.4Z"/><path class="cls-2" d="M144.2,171.7c0-.3-.1-.7.2-1C144.8,171.1,144.9,171.5,144.2,171.7Z"/><path class="cls-1" d="M758.9,88a3.37,3.37,0,0,1-.5,1.7A2.62,2.62,0,0,1,758.9,88Z"/><path class="cls-2" d="M620.4,230.4a9.29,9.29,0,0,0-1-.5C620.1,229.4,620.3,229.8,620.4,230.4Z"/><path class="cls-2" d="M127.4,241.7c0-.3-.1-.7.2-1C128,241.1,128.1,241.5,127.4,241.7Z"/><path class="cls-2" d="M666,205.7v.2c-.4.3-.8.4-1-.2Z"/><path class="cls-2" d="M564.8,113.9a9.29,9.29,0,0,1-1,.5C564,113.8,564.1,113.4,564.8,113.9Z"/><path class="cls-1" d="M741.6,159.7a2.16,2.16,0,0,1-.5,1.7A4.8,4.8,0,0,1,741.6,159.7Z"/><path class="cls-2" d="M604.8,126.1c0-.3-.1-.7.2-1C605.4,125.6,605.5,125.9,604.8,126.1Z"/><path class="cls-2" d="M669.4,206.7c.1.2.2.3.3.5-.5,0-1,.1-1.2-.5Z"/><path class="cls-1" d="M747.8,133.8a2.16,2.16,0,0,1-.5,1.7A4.8,4.8,0,0,1,747.8,133.8Z"/><path class="cls-1" d="M696,176.5a1.35,1.35,0,0,1-1.2-.5C695.2,176.1,695.9,175.6,696,176.5Z"/><path class="cls-2" d="M586.4,240.5a9.29,9.29,0,0,0-.5,1C585.4,240.8,585.8,240.6,586.4,240.5Z"/><path class="cls-2" d="M145.2,167.8c0-.3-.1-.7.2-1C145.7,167.3,145.9,167.6,145.2,167.8Z"/><path class="cls-1" d="M740.2,165.7a3.37,3.37,0,0,1-.5,1.7A1.85,1.85,0,0,1,740.2,165.7Z"/><path class="cls-2" d="M604.1,174.8a9.29,9.29,0,0,1,.5,1C604.1,175.6,603.6,175.4,604.1,174.8Z"/><path class="cls-2" d="M161.3,96.1a9.29,9.29,0,0,0,.5-1C162.2,95.8,161.8,96,161.3,96.1Z"/><path class="cls-1" d="M752.6,113.9a3.37,3.37,0,0,1-.5,1.7A2.62,2.62,0,0,1,752.6,113.9Z"/><path class="cls-2" d="M562.4,114.4a9.29,9.29,0,0,1-1,.5C561.6,114.3,561.7,113.9,562.4,114.4Z"/><path class="cls-2" d="M586.9,238.5a9.29,9.29,0,0,0-.5,1C585.9,238.8,586.3,238.7,586.9,238.5Z"/><path class="cls-1" d="M757,95.9a2.16,2.16,0,0,1-.5,1.7A2.62,2.62,0,0,1,757,95.9Z"/><path class="cls-2" d="M607.2,116.8v-1a.47.47,0,0,1,.5.5C607.7,116.6,607.5,116.7,607.2,116.8Z"/><path class="cls-2" d="M559.5,114.8a9.29,9.29,0,0,1-1,.5C558.7,114.8,558.9,114.3,559.5,114.8Z"/><path class="cls-1" d="M723.3,137.1a2.62,2.62,0,0,1,.5-1.7A2.62,2.62,0,0,1,723.3,137.1Z"/><path class="cls-1" d="M738.3,173.6a2.16,2.16,0,0,1-.5,1.7A2.62,2.62,0,0,1,738.3,173.6Z"/><path class="cls-2" d="M587.3,236.6a9.29,9.29,0,0,0-.5,1C586.3,236.9,586.8,236.7,587.3,236.6Z"/><path class="cls-2" d="M587.8,234.7a9.29,9.29,0,0,0-.5,1C586.8,235,587.3,234.8,587.8,234.7Z"/><path class="cls-2" d="M164.6,81.3a9.29,9.29,0,0,0,.5-1C165.6,81,165.2,81.2,164.6,81.3Z"/><path class="cls-1" d="M728.7,215a3.06,3.06,0,0,1-.2,1.9C728.5,216.3,728.2,215.6,728.7,215Z"/><path class="cls-1" d="M747.4,135.7a3.09,3.09,0,0,1-.5,1.8A2.73,2.73,0,0,1,747.4,135.7Z"/><path class="cls-1" d="M724.3,133.5a2,2,0,0,1,.5-1.5A2,2,0,0,1,724.3,133.5Z"/><path class="cls-1" d="M720.5,147.4a2,2,0,0,1,.5-1.5A2,2,0,0,1,720.5,147.4Z"/><path class="cls-2" d="M462.6,236.6a3.18,3.18,0,0,1,1-1A1.17,1.17,0,0,1,462.6,236.6Z"/><path class="cls-2" d="M128.4,237.8c0-.3-.1-.7.2-1C129.1,237.3,128.8,237.6,128.4,237.8Z"/><path class="cls-1" d="M748.6,261.3c.4,0,.9-.1,1.2.5A1.35,1.35,0,0,1,748.6,261.3Z"/><path class="cls-2" d="M129.3,233.5c0-.3-.1-.7.2-1C130,233,129.7,233.3,129.3,233.5Z"/><path class="cls-1" d="M745.5,259.8c.4.1.8.1,1,.5C746,260.3,745.5,260.6,745.5,259.8Z"/><path class="cls-2" d="M143.3,175.3v-.9h.2C143.6,174.7,144,175.1,143.3,175.3Z"/><path class="cls-1" d="M710.7,114.1a2.46,2.46,0,0,1-1.7-.2C709.5,114,710.1,113.7,710.7,114.1Z"/><path class="cls-1" d="M709.7,230.6h.2c-.1.4.2.9-.5.9Z"/><path class="cls-1" d="M714.2,221.8c0-.5,0-.9.5-1.2A1.29,1.29,0,0,1,714.2,221.8Z"/><path class="cls-2" d="M248.1,221.8a2.4,2.4,0,0,1-1-1A1.08,1.08,0,0,1,248.1,221.8Z"/><path class="cls-1" d="M722.9,138.8a2,2,0,0,1,.5-1.5A2.1,2.1,0,0,1,722.9,138.8Z"/><path class="cls-2" d="M129.8,231.6c0-.3-.1-.7.2-1C130.5,231.1,130.2,231.3,129.8,231.6Z"/><path class="cls-1" d="M697.2,176.9c-.5,0-1,0-1.2-.5A1.35,1.35,0,0,1,697.2,176.9Z"/><path class="cls-2" d="M655.2,117.9h-.9c.2-.4.5-.7,1-.2A.31.31,0,0,0,655.2,117.9Z"/><path class="cls-1" d="M712.8,225.3a1.66,1.66,0,0,1,.5-1.2C713.3,224.6,713.4,225.1,712.8,225.3Z"/><path class="cls-1" d="M730.1,240.9a1.87,1.87,0,0,1,.5,1.4A1.62,1.62,0,0,1,730.1,240.9Z"/><path class="cls-1" d="M698.7,177.4c-.5,0-1,0-1.3-.5A1.66,1.66,0,0,1,698.7,177.4Z"/><path class="cls-2" d="M658.8,204.3a3.55,3.55,0,0,1,1,.2C659.4,204.8,659,204.9,658.8,204.3Z"/><path class="cls-1" d="M701.5,178.4a2.1,2.1,0,0,1-1.5-.5A2,2,0,0,1,701.5,178.4Z"/><path class="cls-1" d="M712.3,226.3c.1-.4.1-.8.5-1C712.8,225.7,713,226.2,712.3,226.3Z"/><path class="cls-1" d="M703.9,179.3c-.4-.1-.9,0-1.2-.5A1.35,1.35,0,0,1,703.9,179.3Z"/><path class="cls-1" d="M721.9,142.2a2.1,2.1,0,0,1,.5-1.5A2.26,2.26,0,0,1,721.9,142.2Z"/><path class="cls-2" d="M137.5,199.5c0-.3-.1-.7.2-1C138.2,199,137.9,199.2,137.5,199.5Z"/><path class="cls-2" d="M631.5,197.5h.9v.2C632.1,197.9,631.6,198.3,631.5,197.5Z"/><path class="cls-1" d="M706.1,180.3c-.4-.1-.8-.1-1-.5C705.5,179.9,706,179.6,706.1,180.3Z"/><path class="cls-2" d="M630,197.1h.9v.2C630.6,197.4,630.2,197.9,630,197.1Z"/><path class="cls-2" d="M628.6,196.6h.9v.2C629.2,197,628.7,197.4,628.6,196.6Z"/><path class="cls-1" d="M711.3,228.2c.1-.4.1-.8.5-1C711.8,227.6,712.1,228.2,711.3,228.2Z"/><path class="cls-2" d="M357,253.4a2.4,2.4,0,0,1,1,1A1.08,1.08,0,0,1,357,253.4Z"/><path class="cls-2" d="M448.7,251a3.18,3.18,0,0,1,1-1A1.17,1.17,0,0,1,448.7,251Z"/><path class="cls-2" d="M219.3,252.9a2.4,2.4,0,0,1,1,1A1.08,1.08,0,0,1,219.3,252.9Z"/><path class="cls-1" d="M710.8,229.1c.1-.4.1-.8.5-1C711.3,228.6,711.6,229.1,710.8,229.1Z"/><path class="cls-2" d="M657.6,228.5c-.2.3-.5.2-.7.2C657,228.2,657.2,228.1,657.6,228.5Z"/><path class="cls-2" d="M661,228c-.2.3-.5.2-.7.2C660.4,227.7,660.6,227.6,661,228Z"/><path class="cls-2" d="M130.3,229.4a.84.84,0,0,1,.2-.7C130.9,229.1,130.8,229.3,130.3,229.4Z"/><path class="cls-2" d="M663.4,227.5c-.2.3-.5.2-.7.2C662.8,227.2,663,227.1,663.4,227.5Z"/><path class="cls-2" d="M654.3,228.9c-.2.3-.5.2-.7.2C653.6,228.7,653.9,228.6,654.3,228.9Z"/><path class="cls-2" d="M604.4,127.8a.84.84,0,0,1,.2-.7C605,127.5,604.9,127.7,604.4,127.8Z"/><path class="cls-1" d="M760.8,80.6a3,3,0,0,1-.5,1.3A1.43,1.43,0,0,1,760.8,80.6Z"/><path class="cls-1" d="M702.7,178.9a1.35,1.35,0,0,1-1.2-.5A1,1,0,0,1,702.7,178.9Z"/><path class="cls-2" d="M123.1,259.2a.84.84,0,0,1,.2-.7C123.7,258.8,123.6,259.1,123.1,259.2Z"/><path class="cls-1" d="M705.1,179.8a1.66,1.66,0,0,1-1.2-.5A1.35,1.35,0,0,1,705.1,179.8Z"/><path class="cls-2" d="M141.8,181.5a.84.84,0,0,1,.2-.7C142.4,181.2,142.3,181.4,141.8,181.5Z"/><path class="cls-2" d="M602.9,133.1a.84.84,0,0,1,.2-.7C603.6,132.7,603.4,133,602.9,133.1Z"/><path class="cls-2" d="M124.5,253.4a.84.84,0,0,1,.2-.7C125.2,253.1,125.1,253.3,124.5,253.4Z"/><path class="cls-2" d="M132.2,221.3a.84.84,0,0,1,.2-.7C132.9,221,132.7,221.2,132.2,221.3Z"/><path class="cls-2" d="M145.7,165.7a.84.84,0,0,1,.2-.7C146.3,165.3,146.2,165.6,145.7,165.7Z"/><path class="cls-2" d="M606.8,118.7a.84.84,0,0,1,.2-.7C607.4,118.4,607.3,118.6,606.8,118.7Z"/><path class="cls-2" d="M125,251.5a.84.84,0,0,1,.2-.7C125.7,251.2,125.5,251.4,125,251.5Z"/><path class="cls-1" d="M717.8,197.4a2,2,0,0,1-.2-1.5C718.1,196.3,717.8,196.9,717.8,197.4Z"/><path class="cls-2" d="M132.7,219.4a.84.84,0,0,1,.2-.7C133.3,219,133.2,219.3,132.7,219.4Z"/><path class="cls-2" d="M632.9,198a.84.84,0,0,1,.7.2C633.2,198.7,633,198.5,632.9,198Z"/><path class="cls-1" d="M761.3,79.6c-.1.4-.1.8-.5,1C760.8,80.2,760.8,79.8,761.3,79.6Z"/><path class="cls-2" d="M636.3,199a.84.84,0,0,1,.7.2C636.6,199.6,636.4,199.5,636.3,199Z"/><path class="cls-2" d="M642,200.4a.84.84,0,0,1,.7.2C642.4,201.1,642.1,200.9,642,200.4Z"/><path class="cls-2" d="M638.2,199.5a.84.84,0,0,1,.7.2C638.5,200.1,638.3,200,638.2,199.5Z"/><path class="cls-2" d="M640.1,199.9a.84.84,0,0,1,.7.2C640.4,200.6,640.2,200.5,640.1,199.9Z"/><path class="cls-1" d="M732,245.9a1.17,1.17,0,0,1,.5,1.1A1.07,1.07,0,0,1,732,245.9Z"/><path class="cls-2" d="M646.4,201.4a.84.84,0,0,1,.7.2C646.7,202,646.5,201.9,646.4,201.4Z"/><path class="cls-2" d="M648.8,201.9a.84.84,0,0,1,.7.2C649.1,202.5,648.8,202.4,648.8,201.9Z"/><path class="cls-2" d="M126.5,245.2a.84.84,0,0,1,.2-.7C127.1,244.9,127,245.2,126.5,245.2Z"/><path class="cls-2" d="M650.7,202.3a.84.84,0,0,1,.7.2C651,203,650.8,202.8,650.7,202.3Z"/><path class="cls-2" d="M136.5,203.5a.84.84,0,0,1,.2-.7C137.2,203.2,137,203.4,136.5,203.5Z"/><path class="cls-2" d="M653.1,202.8a.84.84,0,0,1,.7.2C653.4,203.5,653.2,203.3,653.1,202.8Z"/><path class="cls-2" d="M655,203.3a.84.84,0,0,1,.7.2C655.3,203.9,655.1,203.8,655,203.3Z"/><path class="cls-2" d="M606.3,120.6a.84.84,0,0,1,.2-.7C606.9,120.3,606.8,120.5,606.3,120.6Z"/><path class="cls-2" d="M647.8,120.3h-.7c.1-.5.3-.6.7-.2Z"/><path class="cls-1" d="M730.6,242.4a1.85,1.85,0,0,1,.5,1.2A1.06,1.06,0,0,1,730.6,242.4Z"/><path class="cls-2" d="M656.9,203.8a.84.84,0,0,1,.7.2C657.2,204.4,657,204.3,656.9,203.8Z"/><path class="cls-2" d="M661.2,204.7a.84.84,0,0,1,.7.2C661.6,205.4,661.3,205.2,661.2,204.7Z"/><path class="cls-2" d="M663.1,205.2a.84.84,0,0,1,.7.2C663.5,205.8,663.2,205.7,663.1,205.2Z"/><path class="cls-2" d="M503.4,158.9c0,.4,0,.8-.5,1A1.39,1.39,0,0,1,503.4,158.9Z"/><path class="cls-2" d="M502.9,159.9c0,.4,0,.8-.5,1A1.39,1.39,0,0,1,502.9,159.9Z"/><path class="cls-1" d="M730.6,205.2c0,.4.1.8-.3,1.1C730.4,206,730.2,205.5,730.6,205.2Z"/><path class="cls-2" d="M503.8,158c0,.4,0,.8-.5,1A1.6,1.6,0,0,1,503.8,158Z"/><path class="cls-2" d="M671.3,207.6a.75.75,0,0,1,.7.5C671.7,208.1,671.3,208.1,671.3,207.6Z"/><path class="cls-2" d="M502.4,160.9c0,.4,0,.8-.5,1C502,161.4,502.1,161.1,502.4,160.9Z"/><path class="cls-2" d="M258.7,120.1c-.2.4-.5.5-1,.5A1.6,1.6,0,0,1,258.7,120.1Z"/><path class="cls-2" d="M674.4,209.8a1.58,1.58,0,0,1,.7.7A.68.68,0,0,1,674.4,209.8Z"/><path class="cls-2" d="M675.4,211a.75.75,0,0,1,.5.7C675.4,211.7,675.4,211.3,675.4,211Z"/><path class="cls-2" d="M504.3,157c0,.4,0,.8-.5,1A1.91,1.91,0,0,1,504.3,157Z"/><path class="cls-2" d="M204.9,237.6c.4.2.5.5.5,1A1.91,1.91,0,0,1,204.9,237.6Z"/><path class="cls-2" d="M259.6,119.6c-.2.4-.5.5-1,.5A1.91,1.91,0,0,1,259.6,119.6Z"/><path class="cls-2" d="M262,118.7c-.2.4-.5.5-1,.5A1.11,1.11,0,0,1,262,118.7Z"/><path class="cls-2" d="M200.1,137.9c0-.4,0-.8.5-1A1.39,1.39,0,0,1,200.1,137.9Z"/><path class="cls-1" d="M731.5,244.7a1.28,1.28,0,0,1,.4,1A1.05,1.05,0,0,1,731.5,244.7Z"/><path class="cls-2" d="M504.8,156.1c0,.4,0,.8-.5,1A1.6,1.6,0,0,1,504.8,156.1Z"/><path class="cls-2" d="M203.5,235.2c.4.2.5.5.5,1A1.11,1.11,0,0,1,203.5,235.2Z"/><path class="cls-2" d="M247.6,125.9c-.2.4-.5.5-1,.5A1.11,1.11,0,0,1,247.6,125.9Z"/><path class="cls-2" d="M456.3,115.3c0,.4,0,.8-.5,1A1.91,1.91,0,0,1,456.3,115.3Z"/><path class="cls-2" d="M653.8,118c-.1.2-.2.3-.3.5H653C653.1,117.9,653.4,118,653.8,118Z"/><path class="cls-2" d="M203,234.2c.4.2.5.5.5,1A1.39,1.39,0,0,1,203,234.2Z"/><path class="cls-2" d="M459.2,112.9c-.2.4-.5.5-1,.5A1.91,1.91,0,0,1,459.2,112.9Z"/><path class="cls-2" d="M202.5,233.3c.4.2.5.5.5,1A2.35,2.35,0,0,1,202.5,233.3Z"/><path class="cls-1" d="M726.2,116.1c-.4-.1-.8-.1-1-.5A1,1,0,0,1,726.2,116.1Z"/><path class="cls-2" d="M642.8,121.8a.75.75,0,0,1-.7.5C642.1,121.8,642.4,121.8,642.8,121.8Z"/><path class="cls-2" d="M202,232.3c.4.2.5.5.5,1A1.91,1.91,0,0,1,202,232.3Z"/><path class="cls-2" d="M675.9,218.9a.75.75,0,0,1-.5.7C675.4,219.3,675.4,218.9,675.9,218.9Z"/><path class="cls-2" d="M501.4,163.3c0,.4,0,.8-.5,1C501,163.8,501.1,163.5,501.4,163.3Z"/><path class="cls-2" d="M639.4,123.2a.75.75,0,0,1-.7.5C638.7,123.2,639,123.2,639.4,123.2Z"/><path class="cls-2" d="M251.9,123.5c-.2.4-.5.5-1,.5A1.22,1.22,0,0,1,251.9,123.5Z"/><path class="cls-2" d="M201.6,231.3c.4.2.5.5.5,1A1,1,0,0,1,201.6,231.3Z"/><path class="cls-2" d="M638.4,123.7a.75.75,0,0,1-.7.5C637.7,123.7,638.1,123.7,638.4,123.7Z"/><path class="cls-2" d="M505.3,155.1c0,.4,0,.8-.5,1A1.39,1.39,0,0,1,505.3,155.1Z"/><path class="cls-2" d="M251,124c-.2.4-.5.5-1,.5A1.11,1.11,0,0,1,251,124Z"/><path class="cls-2" d="M637.5,124.2a.75.75,0,0,1-.7.5C636.8,124.2,637.1,124.2,637.5,124.2Z"/><path class="cls-1" d="M708.9,181.8c-.4-.1-.8-.1-1-.5C708.4,181.3,708.8,181.4,708.9,181.8Z"/><path class="cls-2" d="M505.8,154.2c0,.4,0,.8-.5,1A1.1,1.1,0,0,1,505.8,154.2Z"/><path class="cls-2" d="M250,124.4c-.2.4-.5.5-1,.5A1.91,1.91,0,0,1,250,124.4Z"/><path class="cls-2" d="M203,179.6c0,.4,0,.8-.5,1C202.6,180.1,202.7,179.8,203,179.6Z"/><path class="cls-2" d="M217.9,71.2c.2-.4.5-.5,1-.5A1.59,1.59,0,0,1,217.9,71.2Z"/><path class="cls-2" d="M610.6,147a.75.75,0,0,1-.5.7C610.1,147.3,610.1,147,610.6,147Z"/><path class="cls-2" d="M506.2,153.2c0,.4,0,.8-.5,1A1.6,1.6,0,0,1,506.2,153.2Z"/><path class="cls-2" d="M630.3,128c-.1.2-.2.3-.2.5h-.5C629.6,128,629.9,128,630.3,128Z"/><path class="cls-2" d="M468.8,226.1c0-.4,0-.8.5-1A1.39,1.39,0,0,1,468.8,226.1Z"/><path class="cls-2" d="M204,177.2c0,.4,0,.8-.5,1C203.5,177.7,203.6,177.4,204,177.2Z"/><path class="cls-2" d="M500.5,165.7c0,.4,0,.8-.5,1A1.1,1.1,0,0,1,500.5,165.7Z"/><path class="cls-2" d="M204.9,174.8c0,.4,0,.8-.5,1C204.5,175.3,204.6,175,204.9,174.8Z"/><path class="cls-2" d="M205.4,173.8c0,.4,0,.8-.5,1A1.91,1.91,0,0,1,205.4,173.8Z"/><path class="cls-2" d="M539.4,173.8c0-.4,0-.8.5-1A1.6,1.6,0,0,1,539.4,173.8Z"/><path class="cls-2" d="M205.9,172.9c0,.4,0,.8-.5,1A1.1,1.1,0,0,1,205.9,172.9Z"/><path class="cls-1" d="M746.4,260.3c.4.1.8,0,.9.5A1,1,0,0,1,746.4,260.3Z"/><path class="cls-1" d="M711.8,227.3c.1-.4.1-.8.5-1A1.11,1.11,0,0,1,711.8,227.3Z"/><path class="cls-2" d="M209.2,166.1c0,.4,0,.8-.5,1A1.91,1.91,0,0,1,209.2,166.1Z"/><path class="cls-2" d="M221.7,67.9c0-.4,0-.8.5-1A1.91,1.91,0,0,1,221.7,67.9Z"/><path class="cls-2" d="M206.4,171.9c0,.4,0,.8-.5,1A1,1,0,0,1,206.4,171.9Z"/><path class="cls-2" d="M200.6,228.9c.4.2.5.5.5,1A1.23,1.23,0,0,1,200.6,228.9Z"/><path class="cls-2" d="M540.3,171.4c0-.4,0-.8.5-1A1.23,1.23,0,0,1,540.3,171.4Z"/><path class="cls-2" d="M208.8,167.1c0,.4,0,.8-.5,1A1,1,0,0,1,208.8,167.1Z"/><path class="cls-1" d="M756.5,263.7a1.72,1.72,0,0,1,1.2.2C757.2,263.9,756.8,264.1,756.5,263.7Z"/><path class="cls-2" d="M632.7,126.6a.75.75,0,0,1-.7.5C632,126.6,632.3,126.6,632.7,126.6Z"/><path class="cls-2" d="M633.6,126.1a.75.75,0,0,1-.7.5C632.9,126.1,633.3,126.1,633.6,126.1Z"/><path class="cls-2" d="M612,144.6a.75.75,0,0,1-.5.7C611.6,144.9,611.6,144.6,612,144.6Z"/><path class="cls-2" d="M499,169.5c0,.4,0,.8-.5,1A1.6,1.6,0,0,1,499,169.5Z"/><path class="cls-7" d="M133.2,216c-.1,0-.1.1,0,.2-.7.8-.5,2-.8,2.9-1.3,4.9-2.4,9.9-3.6,14.8s-2.5,9.8-3.6,14.8c-.8,3.6-1.8,7.3-2.6,10.9l-.6,2.7c-.2.2-.2.5-.3.8s-.2,1-.8,1.1-.8-.4-1.1-.8a23.86,23.86,0,0,1-1.2-2.2c-3.1-5.9-6.3-11.7-9.5-17.5-3.5-6.4-7.1-12.9-10.6-19.3-2.3-4.2-4.6-8.5-7-12.7-2.5-4.6-4.9-9.2-7.5-13.7-1.9-3.4-3.7-6.9-5.6-10.2a2.79,2.79,0,0,1-.1-2.2,49,49,0,0,0,1.3-5.5c1.1-4.2,2.1-8.4,3.2-12.6,1.1-4,2.2-8.1,3.2-12.1,1.2-4.5,2.3-9,3.4-13.5,1.3-5,2.6-9.9,3.8-14.9L98,108.4c2.1-8,4.2-16,6.2-24,1.7-6.6,3.5-13.3,5.2-19.9,2-7.6,3.9-15.2,5.8-22.7,1.4-5.6,2.9-11.2,4.3-16.7.2-.8.7-1.5.5-2.4a1.89,1.89,0,0,1,1.9-1H232.4c1,0,1.1.2.8,1.2-1.4,4.9-2.6,9.7-3.9,14.6-1.8,6.6-3.5,13.2-5.3,19.8-.9,3.2-1.6,6.5-2.8,9.6-1,2.7-3,4-5.8,4.5a35.05,35.05,0,0,1-5.6.3H172c-1.3,0-2.7-.3-3.9.6a3.32,3.32,0,0,0-1.4,1,2.55,2.55,0,0,0-.8,1.2c-1,1.2-1,2.7-1.4,4.1-1.2,5.4-2.4,10.8-3.5,16.2-.6,2.6-.5,2.6,2.1,2.6h45a4.82,4.82,0,0,1,1.2,0,1.21,1.21,0,0,1,1,1.7c-1.4,4.9-2.7,9.8-4.2,14.7s-2.7,9.7-4.2,14.6c-.8,2.6-1.5,5.2-2.2,7.8a7.12,7.12,0,0,1-7,5.5c-13.5-.1-27,0-40.5-.1-1.1,0-1.7.1-2,1.5-.7,3.5-1.7,6.9-2.6,10.4a3.75,3.75,0,0,0-.1,1.1c-.1,0-.1.1,0,.2-.7.8-.5,2-.8,2.9-1.3,4.9-2.4,9.9-3.6,14.8a4.13,4.13,0,0,0-.4,2.2c-.7.8-.5,1.8-.7,2.7-.9,3.4-1.7,6.8-2.6,10.2-.1.3,0,.6-.1.9-.7,1-.6,2.2-.9,3.3-1.5,5.8-2.9,11.7-4.3,17.5a30.28,30.28,0,0,0-.6,3.2,2.62,2.62,0,0,0-.5,1.9c.2.2.1.9.2,1.6Z"/><path class="cls-3" d="M19.7,60.9C16.8,55.6,14,50.3,11.1,45c-2-3.6-4-7.2-5.8-10.9-.6-1.2-.1-2.2,1.2-2.3H91.6c1.9,0,2.1.2,1.7,2.2-.4,1.8-.9,3.6-1.4,5.4-1.1,4-2.2,8.1-3.2,12.1-1.9,7.3-3.8,14.7-5.8,22C81.5,79,80,84.5,78.6,90c-1.3,4.7-2.4,9.4-3.7,14.1-1.8,6.3-3.3,12.6-4.9,18.9s-3.2,12.5-4.9,18.8c-.1.3-.1.8-.5.9s-.6-.2-.7-.5c-1.3-2.3-2.5-4.7-3.7-7a36.23,36.23,0,0,0-2.4-4.3c-2.9-5.3-5.7-10.6-8.6-15.9-3.2-5.9-6.4-11.8-9.6-17.8-4-7.4-8.1-14.7-12-22.2-.8-1.5-1.8-3-2.5-4.6A11.57,11.57,0,0,0,23.7,68c-.5-1-1-1.9-1.5-2.9C21.3,63.8,20.7,62.2,19.7,60.9Z"/><path class="cls-8" d="M79.6,180a7.89,7.89,0,0,1-.7,3.7c-.5,1.9-.8,3.5.4,5.4,1.9,2.9,3.4,6.1,5.1,9.2l6.6,12c1.6,3,3.2,6,4.9,9.1,2.4,4.4,4.8,8.7,7.2,13.1,1.6,3,3.2,6.1,4.9,9.1,2.2,4,4.4,7.9,6.6,11.9,1.7,3,3.3,6.1,4.9,9.2a5.58,5.58,0,0,0,.5.8c.6.6,1.1.9,1.4-.2a1.33,1.33,0,0,1,.6-.9c-.1.4-.1.9-.2,1.3s0,1-.6,1a1.36,1.36,0,0,1-1.3-.7c-.7-1.2-1.3-2.4-2-3.6-4.6-8.5-9.2-16.9-13.9-25.4-2.4-4.4-4.9-8.9-7.3-13.3s-4.8-8.7-7.1-13.1c-3.7-6.8-7.4-13.5-11.1-20.3a3.91,3.91,0,0,1-.3-3c.5-1.8,1-3.5,1.4-5.3Z"/><path class="cls-9" d="M57.6,130.9a9.21,9.21,0,0,1,2.4,4.3A22.56,22.56,0,0,1,57.6,130.9Z"/><path class="cls-10" d="M19.7,60.9a9.21,9.21,0,0,1,2.4,4.3A22.56,22.56,0,0,1,19.7,60.9Z"/><path class="cls-10" d="M23.6,68.1A3.34,3.34,0,0,1,25,70.5,5.85,5.85,0,0,1,23.6,68.1Z"/><path class="cls-11" d="M167,72.9c.4-.5.7-1.1,1.4-1-.3.5-.8.6-1.2,1C167.2,73,167.1,73,167,72.9Z"/><path class="cls-11" d="M167,72.9h.3c-.4.4-.5.9-1,1.2C166.2,73.5,166.6,73.2,167,72.9Z"/><path class="cls-5" d="M620.2,136.1a34.66,34.66,0,0,1,7.7-6c-.5,1.1-1.7,1.5-2.6,2.2a65.35,65.35,0,0,0-5.1,4.1v-.3Z"/><path class="cls-12" d="M702.3,240.5a10,10,0,0,1-2.9,2.9A11.42,11.42,0,0,1,702.3,240.5Z"/><path class="cls-13" d="M630.1,128.6c.5-.3,1.1-.5,1.6-.8a3.16,3.16,0,0,1-2.4,1.4c.1-.4.6-.3.8-.6Z"/><path class="cls-13" d="M688.9,251.5c-.3.2-.5.4-.8.6-.5.3-1.1.5-1.6.8a3.52,3.52,0,0,1,2.2-1.4Z"/><path class="cls-1" d="M624.3,194.7a2.47,2.47,0,0,1-2.4-1A4.6,4.6,0,0,1,624.3,194.7Z"/><path class="cls-1" d="M628.1,196.1h-1.2c-.1-.2-.2-.3-.2-.5A1.87,1.87,0,0,1,628.1,196.1Z"/><path class="cls-14" d="M627.9,130.2a2.37,2.37,0,0,1,1.5-.9A2.37,2.37,0,0,1,627.9,130.2Z"/><path class="cls-3" d="M413.2,264a90.48,90.48,0,0,1-20.8,1,70.86,70.86,0,0,1-16.3-3,70,70,0,0,1-14.1-5.9c-5.9-3.4-11-7.8-13.6-14.4a27.06,27.06,0,0,1-2.2-8.9,54.41,54.41,0,0,1-.3-5.7,81.69,81.69,0,0,1,2-13c.8-3.1,1.6-6.3,2.2-9.5.6-2.8,1.3-5.5,2-8.2.8-3.1,1.6-6.3,2.3-9.5l2.7-11.1c.9-3.6,1.7-7.2,2.6-10.8,1.1-4.4,2.2-8.8,3.2-13.2.7-3,1.4-6,2.1-8.9,1-4.4,2.2-8.7,3.2-13.1.8-3.7,1.7-7.3,2.6-10.9.3-1.4.6-2.7.9-4.1.2-.8.5-1,1.3-1h38.5c1,0,1.4,0,1.1,1.2-1.3,4.9-2.5,9.7-3.7,14.6-1,4.2-2.1,8.4-3.1,12.6s-2.1,8.2-3.1,12.4c-.9,3.5-1.7,7-2.6,10.5s-1.8,7-2.6,10.5-1.7,7-2.6,10.5-1.8,7.1-2.7,10.6-1.7,7.1-2.6,10.6a35.37,35.37,0,0,0-1,10.2,13.76,13.76,0,0,0,4.7,10.5,13.16,13.16,0,0,0,5.3,2.6c4.6,1.2,9.4,1,14.1.5a22,22,0,0,0,14.5-7.2,27.4,27.4,0,0,0,4.3-7c1.6-3.6,2.2-7.5,3.2-11.2,1.4-5.6,2.8-11.1,4.1-16.7,1.1-4.8,2.4-9.5,3.6-14.3s2.3-9.7,3.5-14.6,2.4-9.7,3.6-14.5c1-4.2,2-8.3,3.1-12.5s2.1-8.2,3.1-12.4a21,21,0,0,0,.6-2.4,6.44,6.44,0,0,1,2.4-4,3.58,3.58,0,0,1,2.4-.9c10.6,0,21.2-.1,31.8-.1,1.4,0,2.8.1,4.2.1.6,0,.8.2.6.8-.9,3.6-1.8,7.3-2.7,10.9-1.1,4.2-2.1,8.4-3.2,12.6-1.2,4.8-2.4,9.5-3.6,14.3-1,4.2-2.1,8.3-3.1,12.5-1.2,4.9-2.5,9.7-3.7,14.6s-2.3,9.6-3.6,14.4c-1.1,4-1.9,8.1-3.1,12.1-.9,3.1-1.5,6.3-2.3,9.5a23,23,0,0,0-1.2,3.4,78.51,78.51,0,0,1-6.4,13.8,62.71,62.71,0,0,1-11.2,13.9,61.55,61.55,0,0,1-8.7,6.5,91.74,91.74,0,0,1-8.8,4.6,82.86,82.86,0,0,1-8.3,3.1,67.72,67.72,0,0,1-7.7,2.2,51.69,51.69,0,0,1-5.4,1.1c-.7-.1-1.2-.1-1.5.3Z"/><path class="cls-5" d="M413.2,264c.1-.2.2-.5.5-.5a33.33,33.33,0,0,0,5.5-1c2-.4,4-1,6-1.6,2.2-.7,4.5-1.4,6.6-2.2a58.54,58.54,0,0,0,6.8-3,64.81,64.81,0,0,0,8.8-5.1A52.75,52.75,0,0,0,458.9,240c1.6-2,3.1-4.1,4.6-6.2a49.84,49.84,0,0,0,5.1-9.7,44.18,44.18,0,0,0,3.1-8.6c0-.2.3-.3.4-.4a63,63,0,0,1-4,11,61.13,61.13,0,0,1-31.8,31.2,98.64,98.64,0,0,1-18.4,5.9c-1.5.3-3.1.5-4.7.8Z"/><path class="cls-15" d="M224.6,146.3a143.85,143.85,0,0,0-11.1,14.6c-1.6,2.6-3.1,5.2-4.6,7.9-1.6,2.9-2.8,5.9-4.2,8.9a101.77,101.77,0,0,0-3.6,9.7,10.15,10.15,0,0,0-.6,2.5c-.1.3-.2.6-.5.7.2-.9.4-1.7.6-2.6a115.8,115.8,0,0,1,4.8-12.8,102.38,102.38,0,0,1,12.2-20.7,86.92,86.92,0,0,1,6.8-8.2c.1-.1.2-.1.2,0Z"/><path class="cls-16" d="M340.7,145.5c-.9-.6-.6-1.7-.9-2.4a37.59,37.59,0,0,0-6-12.8,33.87,33.87,0,0,0-8.7-8.2,35,35,0,0,0-6.3-3.5c-2.4-.9-4.7-2.2-7.2-2.7-.3-.1-.5-.2-.6-.5a41.1,41.1,0,0,1,10.7,4.2,37.11,37.11,0,0,1,11.7,9.5,31.49,31.49,0,0,1,5.8,11A23.93,23.93,0,0,1,340.7,145.5Z"/><path class="cls-15" d="M277.8,114.8c-.6.9-1.7.6-2.5.8-1.4.4-2.8.7-4.2,1.1-3.2,1-6.3,1.9-9.4,3.1-2.4.9-4.7,2-7,3.1a89.16,89.16,0,0,0-14.1,8.7c-.8.6-1.6,1.1-2.4,1.8a.19.19,0,0,1,0-.3,34.63,34.63,0,0,1,6.5-4.9A86.07,86.07,0,0,1,268.2,117c3.2-.7,6.4-1.6,9.6-2.2Z"/><path class="cls-17" d="M238.2,133.3v.3c-4.5,3.4-8.4,7.5-12.3,11.4-.4.4-.9.8-1.3,1.2h-.3a110.12,110.12,0,0,1,10.9-10.7,16.55,16.55,0,0,1,3-2.2Z"/><path class="cls-3" d="M601.9,135.4a24.37,24.37,0,0,0-1.4,5.3c-.8,1.5-.9,3.3-1.4,4.9a6.53,6.53,0,0,0-.5,2c-.1,1.3-.7,1.7-1.9,1.4-3.5-.7-7.2-.5-10.7-1a65.41,65.41,0,0,0-14-.4,37.36,37.36,0,0,0-9.9,2.2,42.93,42.93,0,0,0-12,6.7c-3.4,2.7-5.8,6.2-8.1,9.7a32.24,32.24,0,0,0-3.7,8.5c-.9,2.9-1.4,5.9-2.2,8.8-1.1,4.3-2.2,8.6-3.2,12.8-.9,3.6-1.7,7.2-2.6,10.8-1,4.3-2.1,8.7-3.1,13-.9,3.6-1.8,7.2-2.6,10.8-1.1,4.3-2.1,8.6-3.2,13-.9,3.6-1.7,7.3-2.6,10.9-.6,2.5-1.2,5-1.9,7.5a4.28,4.28,0,0,1-4.1,2.8H477.1c-.8,0-.9-.3-.8-1,1.1-4.4,2.2-8.9,3.1-13.3,1.1-5.3,2.6-10.6,3.9-15.9,1.7-6.9,3.3-13.8,5-20.6,1.6-6.6,3.2-13.3,4.8-19.9,1.5-6.3,3.1-12.7,4.7-19,.3-1.3.8-2.6,1.2-3.9a30.79,30.79,0,0,0,2.1-5.3,95.84,95.84,0,0,1,4.2-9.2,74,74,0,0,1,10.3-15.6,83.88,83.88,0,0,1,18.3-15.8,58.35,58.35,0,0,1,9.6-5c2.4-.9,4.7-2,7.2-2.8.5-.2,1.2-.1,1.6-.6a69.91,69.91,0,0,1,7.9-1.9c3.6-.6,7.2-1.2,10.8-1.6a153.09,153.09,0,0,1,20.3-.3,96.57,96.57,0,0,1,14.2,1.7c1.5.8,1.5,1,1,2.7-.3,1.1-.5,2.2-.8,3.2-.8,1.5-.9,3.3-1.4,4.9a5.93,5.93,0,0,0-.5,2.3c-.8,1.5-.9,3.3-1.4,4.9a18.92,18.92,0,0,0-.5,2.3Z"/><path class="cls-18" d="M552.3,117.2c-.3.9-1.3.7-1.8.9-2.4.8-4.7,1.9-7.1,2.8a60.61,60.61,0,0,0-11.5,6.2,51.79,51.79,0,0,0-10.4,8.4c-1.2,1.3-2.5,2.5-3.7,3.7a69.74,69.74,0,0,0-9.3,12.3,118.67,118.67,0,0,0-5.8,11.2,35.82,35.82,0,0,0-2.7,7.1,2.2,2.2,0,0,1-.9,1.6c.6-1.7,1.2-3.4,1.7-5l.3-.9c1.5-3.4,3-6.8,4.8-10.1a77.77,77.77,0,0,1,11-15.7,80,80,0,0,1,16.3-13.9,5.85,5.85,0,0,1,2.4-1.4,36.76,36.76,0,0,1,7.7-3.8,46.36,46.36,0,0,1,9-3.4Z"/><path class="cls-1" d="M607.3,154.9a2.62,2.62,0,0,1,.9-2.2A7.26,7.26,0,0,1,607.3,154.9Z"/><path class="cls-1" d="M606.8,156.4c0-.5-.1-1,.4-1.3A2,2,0,0,1,606.8,156.4Z"/><path class="cls-1" d="M606.3,157.8c0-.5-.1-1,.4-1.2A1.92,1.92,0,0,1,606.3,157.8Z"/><path class="cls-1" d="M543.2,120.4c-2.6,1.3-5.1,2.6-7.7,3.8.6-1.2,1.8-1.4,2.8-1.8C539.9,121.6,541.4,120.5,543.2,120.4Z"/><path class="cls-1" d="M535.5,124.2a8.37,8.37,0,0,1-2.4,1.4A3.34,3.34,0,0,1,535.5,124.2Z"/><path class="cls-3" d="M340.7,145.5c-.5-1.4-.8-2.9-1.3-4.3a45,45,0,0,0-3.8-8.7,34.81,34.81,0,0,0-11.5-11.4,55.37,55.37,0,0,0-6.4-3.3c-2.2-.9-4.5-1.7-6.7-2.6a58.28,58.28,0,0,0-11.7-1.9c-7.2-.6-14.3.4-21.4,1.5a3.55,3.55,0,0,1-.9.4,24,24,0,0,0-4.8,1.1l-7,2.1a70.25,70.25,0,0,0-10.9,4.7,75.26,75.26,0,0,0-8.7,5,53.38,53.38,0,0,0-7.2,5.3,47.44,47.44,0,0,0-4.9,4c-3.1,2.8-6,5.9-9,8.9-.5.6-.9,1.3-1.5,1.9a64.37,64.37,0,0,0-5.2,6.5,77,77,0,0,0-6,8.9,80.89,80.89,0,0,0-4.2,7.6c-1,2.1-2,4.3-2.9,6.5q-1.8,4.5-3.3,9a17.61,17.61,0,0,1-1.2,3.9,9,9,0,0,1-.3,1.6c-1.6,5.6-1.8,11.3-2.1,17-.1,1.5.5,3,.3,4.5a21,21,0,0,0,.7,5.6,54.93,54.93,0,0,0,3,10.3,52.21,52.21,0,0,0,7.8,13.3,55.64,55.64,0,0,0,11.6,10.6,59.19,59.19,0,0,0,17.4,7.8,110.24,110.24,0,0,0,11.4,2.5c3.9.5,7.9,1,11.9,1.2a174.2,174.2,0,0,0,17.7-.2c3.2-.3,6.4-.7,9.7-.7.4,0,.7-.1,1.1-.1,1.8-.2,3.6-.6,5.4-.7,3.1-.2,6.2-.8,9.4-1.1,3-.3,6-.9,9-1.3s5.4-2.1,6.1-5.1c1.1-4.5,2.4-9,3.6-13.5,1.4-5,2.7-10,4.1-15.1.3-.9-.9-2.2-1.9-2-1.8.3-3.5.8-5.3,1.1-2.5.4-4.9.9-7.4,1.2-2,.2-4,.4-5.9.7a69.89,69.89,0,0,1-9.2.7c-6.4.3-12.9.2-19.3.2a92.14,92.14,0,0,1-18.9-1.5,41,41,0,0,1-9.1-3.2,24.29,24.29,0,0,1-9.6-8.1,21.67,21.67,0,0,1-3.9-9.4,27.1,27.1,0,0,1,.5-10.6c.7-2.4.4-2.6,3.3-2.6h90.5c3.1,0,4.8-1.4,5.5-4.4.9-3.5,1.7-7.1,2.5-10.7a90.92,90.92,0,0,0,2.1-12.7c.2-6.9.3-13.7-1.2-20.4Zm-37.2,18.4a1.84,1.84,0,0,1-2.1,1.6c-8.2-.1-16.3,0-24.5,0H252.3c-1.5,0-1.6,0-1.2-1.5a19.44,19.44,0,0,1,5.9-9,40.46,40.46,0,0,1,9.4-6.5,46.92,46.92,0,0,1,12.8-4.2,37.25,37.25,0,0,1,8.8-.3c4.4.3,8.7,1.3,11.9,4.8a15.63,15.63,0,0,1,4,9.9,13.39,13.39,0,0,1-.4,5.2Z"/><path class="cls-19" d="M826,72.76q0-18.62,12.23-31.37a40.94,40.94,0,0,1,59.4,0q12.27,12.77,12.26,31.37t-12.29,31.49Q885.33,117.07,868,117.07a39.5,39.5,0,0,1-29.71-12.82Q826,91.43,826,72.76Zm7.2,0q0,15.6,10.14,26.26a33.64,33.64,0,0,0,49.15,0q10.14-10.67,10.14-26.26T892.5,46.62a33.8,33.8,0,0,0-49.18,0Q833.21,57.22,833.21,72.76Zm26.24,4.49V97.16h-8.92V46.94h16.6q8.91,0,14.06,4t5.14,11.46a10.59,10.59,0,0,1-1.71,6,14.12,14.12,0,0,1-5,4.4,11,11,0,0,1,5,5,17.26,17.26,0,0,1,1.56,7.59v3.31a40.17,40.17,0,0,0,.21,4.34,9.83,9.83,0,0,0,.8,3.17v.94H878a10.92,10.92,0,0,1-.65-3.63c-.08-1.6-.12-3.22-.12-4.88V85.46q0-4.18-2-6.2t-6.47-2Zm0-7.92h8a13.5,13.5,0,0,0,7.12-1.77,5.61,5.61,0,0,0,2.93-5.08c0-2.84-.77-4.82-2.31-6s-4.21-1.71-8-1.71h-7.68Z"/></svg>