<?xml version="1.0" encoding="UTF-8" standalone="no"?>
<svg
   stroke="currentColor"
   fill="currentColor"
   stroke-width="0"
   viewBox="0 0 1024 1024"
   height="1em"
   width="1em"
   version="1.1"
   id="svg27"
   sodipodi:docname="testPrint"
   inkscape:version="1.2.1 (0f2f062aeb, 2022-09-21, custom)"
   xmlns:inkscape="http://www.inkscape.org/namespaces/inkscape"
   xmlns:sodipodi="http://sodipodi.sourceforge.net/DTD/sodipodi-0.dtd"
   xmlns="http://www.w3.org/2000/svg"
   xmlns:svg="http://www.w3.org/2000/svg">
  <defs
     id="defs31" />
  <sodipodi:namedview
     id="namedview29"
     pagecolor="#505050"
     bordercolor="#eeeeee"
     borderopacity="1"
     inkscape:showpageshadow="0"
     inkscape:pageopacity="0"
     inkscape:pagecheckerboard="0"
     inkscape:deskcolor="#505050"
     showgrid="false"
     inkscape:zoom="0.79394531"
     inkscape:cx="511.37023"
     inkscape:cy="512"
     inkscape:window-width="1846"
     inkscape:window-height="1016"
     inkscape:window-x="0"
     inkscape:window-y="0"
     inkscape:window-maximized="1"
     inkscape:current-layer="svg27" />
  <path
     d="M820 436h-40c-4.4 0-8 3.6-8 8v40c0 4.4 3.6 8 8 8h40c4.4 0 8-3.6 8-8v-40c0-4.4-3.6-8-8-8zm32-104H732V120c0-4.4-3.6-8-8-8H300c-4.4 0-8 3.6-8 8v212H172c-44.2 0-80 35.8-80 80v328c0 17.7 14.3 32 32 32h168v132c0 4.4 3.6 8 8 8h424c4.4 0 8-3.6 8-8V772h168c17.7 0 32-14.3 32-32V412c0-44.2-35.8-80-80-80zM360 180h304v152H360V180zm304 664H360V568h304v276zm200-140H732V500H292v204H160V412c0-6.6 5.4-12 12-12h680c6.6 0 12 5.4 12 12v292z"
     stroke="blue"
     id="path25"
     style="fill:#ffffff" />
</svg>
